<svg id="圖層_1" data-name="圖層 1" xmlns="http://www.w3.org/2000/svg" xmlns:xlink="http://www.w3.org/1999/xlink" viewBox="0 0 725.42 71.74"><defs><style>.cls-1{fill:#d2cce6;}.cls-2{fill:url(#未命名漸層_5);}.cls-3{fill:#8f82bc;}.cls-4{fill:#1d2088;}.cls-5{fill:#fff;}.cls-6{fill:#ee87b4;}.cls-7{fill:#c6a522;}.cls-8{fill:#fff67f;}.cls-9{fill:#d9e480;}.cls-10{fill:#caded3;}.cls-11{fill:#97cef0;}.cls-12{fill:#c7c2e0;}</style><linearGradient id="未命名漸層_5" x1="45.33" y1="34.15" x2="122.31" y2="34.15" gradientUnits="userSpaceOnUse"><stop offset="0" stop-color="#7d72aa"/><stop offset="1" stop-color="#dfddea"/></linearGradient></defs><path class="cls-1" d="M45.35,68.86A28.28,28.28,0,0,0,39,64.13a42.41,42.41,0,0,0-5.79-2.75,77.39,77.39,0,0,0-9.5-3c-1.24-.31-2.46-.71-3.71-.92-.67-.11-.78-.47-.78-1.2,0-7.06,0-14.12,0-21.18q0-15.93,0-31.86c0-.86.06-1.11.89-1a25.61,25.61,0,0,1,9.54,4.43,65.45,65.45,0,0,1,9.31,8,58.56,58.56,0,0,1,5.35,6c.29.38.53.9,1,.95.05.7.13,1.41.13,2.11q0,20.31,0,40.63a19,19,0,0,0,.2,3.85l-.16.57Z"/><path class="cls-2" d="M82.16,39.5c-1.1,0-2.21,0-3.31,0a1.33,1.33,0,0,0-.88.25L70.4,39.7a.71.71,0,0,0-.53.32c-1.12,1.34-2.24,2.69-3.38,4q-4.32,5-8.57,10.08c-1.64,2-3.3,3.9-5,5.8-2.44,2.77-4.71,5.79-7.27,8.39a19,19,0,0,1-.2-3.85q0-20.31,0-40.63c0-.7-.08-1.41-.13-2.11.93-1.49,1.8-3,2.78-4.46a31.72,31.72,0,0,1,4.68-5.32,38.59,38.59,0,0,1,8.54-6A48.61,48.61,0,0,1,72.91,1.57,60,60,0,0,1,81.4.21,66,66,0,0,1,91.14.15a46.3,46.3,0,0,1,10.81,2,42.15,42.15,0,0,1,12.22,5.82,31.65,31.65,0,0,1,4.54,4c1.33,1.4,2.39,3.07,3.6,4.58a1.62,1.62,0,0,1-.92.1H101.2a.78.78,0,0,0-.68.34c-1,1.28-2.06,2.55-3.1,3.8-2.25,2.7-4.51,5.38-6.76,8.08q-4.12,4.94-8.22,9.89C82.26,38.91,82,39.09,82.16,39.5Z"/><path class="cls-3" d="M38.72,68.68H31.06q-15.1,0-30.23,0c-.62,0-.83-.14-.83-1Q0,41.09,0,14.45c0-1,.26-1.16,1-1.26a16.2,16.2,0,0,1,4.4.05,19.23,19.23,0,0,1,6.08,1.92.43.43,0,0,1,.27.47v.88q0,22.69,0,45.39c0,.72.15.9.73.94,2.87.21,5.75.46,8.61.91s5.43.92,8.11,1.62a65,65,0,0,1,8.45,2.75C38,68.26,38.37,68.2,38.72,68.68Z"/><path class="cls-4" d="M136,17.48c0-.72-.14-.93-.73-.92-4,0-8,0-12,0a7.34,7.34,0,0,1-.93-.1,1.62,1.62,0,0,1-.92.1h-10c-1.46,2.12-3.11,4-4.69,6C102.37,28,98,33.44,93.61,38.9a1.4,1.4,0,0,1-1.22.63c-3.41,0-6.82,0-10.23,0-1.1,0-2.21,0-3.31,0a1.33,1.33,0,0,0-.88.25A36.74,36.74,0,0,1,75.32,43l-6.27,7.4c-2.09,2.46-4.16,5-6.26,7.4s-4,4.81-6,7.22c-.16.2-.37.34-.53.55-.77,1-1.52,2-2.26,3l.27,0q40.5,0,81,0c.62,0,.71-.27.71-1Q136,42.6,136,17.48Z"/><path class="cls-5" d="M97.72,54.49V45.94h1.86l3.89,5.71V45.94h1.78v8.55h-1.92L99.5,48.92v5.57Z"/><path class="cls-5" d="M109.42,54.49v-7.1H106.6V45.94h7.54v1.45h-2.81v7.1Z"/><path class="cls-5" d="M115.39,54.49V45.94h1.91v3.37h3.76V45.94H123v8.55h-1.92V50.75H117.3v3.74Z"/><path class="cls-5" d="M125,45.94h1.91v4.63a8,8,0,0,0,.08,1.43,1.34,1.34,0,0,0,.58.84,2.23,2.23,0,0,0,1.27.32,2.11,2.11,0,0,0,1.23-.3,1.18,1.18,0,0,0,.5-.74,9.47,9.47,0,0,0,.08-1.45V45.94h1.92v4.49a10,10,0,0,1-.16,2.18,2.27,2.27,0,0,1-.57,1.07,3,3,0,0,1-1.12.7,5.36,5.36,0,0,1-1.82.26,5.77,5.77,0,0,1-2.07-.29,3,3,0,0,1-1.11-.73,2.21,2.21,0,0,1-.53-.95A9.08,9.08,0,0,1,125,50.5Z"/><path class="cls-6" d="M70.4,65.73V57.25h1.92v7h4.76v1.44Z"/><path class="cls-7" d="M79.39,65.73V57.18H81.3v8.55Z"/><path class="cls-8" d="M84.13,57.18h3.8a13.48,13.48,0,0,1,1.68.08,2.66,2.66,0,0,1,1,.36,2.25,2.25,0,0,1,.73.71,1.86,1.86,0,0,1-.07,2.1,2.11,2.11,0,0,1-1,.75,2.51,2.51,0,0,1,1.34.78,1.92,1.92,0,0,1,.47,1.29,2.35,2.35,0,0,1-.31,1.13,2.31,2.31,0,0,1-.82.88,2.89,2.89,0,0,1-1.28.41c-.32,0-1.09,0-2.32.06H84.13Zm1.92,1.42v2h1.26c.74,0,1.21,0,1.39,0a1.35,1.35,0,0,0,.77-.31.85.85,0,0,0,.28-.67.89.89,0,0,0-.24-.64,1.2,1.2,0,0,0-.72-.3c-.19,0-.74,0-1.64,0Zm0,3.4v2.29h1.77a8.56,8.56,0,0,0,1.32-.06,1.16,1.16,0,0,0,.69-.34,1,1,0,0,0,.27-.72,1.1,1.1,0,0,0-.2-.66,1.17,1.17,0,0,0-.6-.39A7.36,7.36,0,0,0,87.6,62Z"/><path class="cls-9" d="M94.71,65.73V57.18h4a7.72,7.72,0,0,1,2.21.23,2.17,2.17,0,0,1,1.11.82,2.31,2.31,0,0,1,.41,1.34,2.12,2.12,0,0,1-.63,1.59A3.12,3.12,0,0,1,100,62a4.59,4.59,0,0,1,1,.72,9,9,0,0,1,1.09,1.39l1.16,1.67H101l-1.39-1.86a10.27,10.27,0,0,0-1-1.26,1.61,1.61,0,0,0-.57-.36,3.81,3.81,0,0,0-1-.09h-.39v3.57Zm1.91-4.94H98a8.35,8.35,0,0,0,1.73-.1,1,1,0,0,0,.73-1,1,1,0,0,0-.26-.69,1.22,1.22,0,0,0-.72-.34c-.16,0-.62,0-1.4,0h-1.5Z"/><path class="cls-10" d="M113.84,65.73h-2.09l-.83-2h-3.79l-.79,2h-2l3.7-8.55h2Zm-3.53-3.39L109,59.17l-1.28,3.17Z"/><path class="cls-11" d="M115.86,65.73V57.18h4a7.72,7.72,0,0,1,2.21.23,2.17,2.17,0,0,1,1.11.82,2.31,2.31,0,0,1,.41,1.34,2.12,2.12,0,0,1-.63,1.59,3.15,3.15,0,0,1-1.88.79,4.44,4.44,0,0,1,1,.72,9,9,0,0,1,1.09,1.39l1.16,1.67H122.1l-1.39-1.86a11.38,11.38,0,0,0-1-1.26,1.61,1.61,0,0,0-.57-.36,3.81,3.81,0,0,0-1-.09h-.39v3.57Zm1.91-4.94h1.42a8.16,8.16,0,0,0,1.72-.1,1,1,0,0,0,.54-.36,1,1,0,0,0,.2-.65,1,1,0,0,0-.26-.69,1.22,1.22,0,0,0-.72-.34c-.16,0-.62,0-1.4,0h-1.5Z"/><path class="cls-12" d="M128.43,65.73v-3.6l-3.48-5h2.24l2.24,3.38,2.19-3.38h2.21l-3.49,5v3.59Z"/><path d="M335.27,71.74c-1.14-1.89-1.44-3.58.62-5.22.5-.4.43-1.79.26-2.65-.86-4.25-1.89-8.47-2.74-12.72-.37-1.88-1.26-2.18-2.94-1.59s-3.5,1-5.44,1.56c.05-.11,0,0-.07.16-.55,4,.84,4.44,4.36,2.81,1.8-.83,2.05-.83,3.65.26a5.26,5.26,0,0,1-4.64,2.43c-3.12.06-4.28,1.3-4.38,4.37a47.71,47.71,0,0,1-.54,6.65c-.13.76-1.15,1.93-1.74,1.93a1.92,1.92,0,0,1-1.94-2.52c.1-.53.16-1.06.26-1.58a39.61,39.61,0,0,0,1.1-6c.16-5.37,0-10.75.07-16.12,0-1.92-.61-2.47-2.55-1.83-3.05,1-6.17,1.71-10.1,2.78.6-1.14.75-2,1.22-2.24,3.82-1.88,7.2-4.73,11.72-5.11,1.44-.12,1.72-1.38,1.56-2.66a20.6,20.6,0,0,1-.41-3.64c.07-1.72-.71-2.14-2.27-2.09a31.75,31.75,0,0,1-3.75-.3l0-.63a6.53,6.53,0,0,1,1.44-.42c4.48-.28,5.69-2.15,4.78-6.71-.52-2.68-.65-5.48,1.42-7.9,2.23,1.15,2.85,3.07,3.05,5.17.12,1.16,0,2.33,0,3.5,0,2.19.89,2.79,2.93,1.82s3.67-2.16,5.57-3.11a6,6,0,0,1,2.19-.17c-.06.78.16,2.06-.21,2.26a61.63,61.63,0,0,1-7.13,3.21c-1.67.63-3.4,1-3.83,3.18,1.81,1.33,3.2-.13,4.73-.54a12.15,12.15,0,0,1,2.64-.13c-.56.88-.93,2.12-1.74,2.57-1.37.75-3.07.88-4.51,1.54-.6.27-.87,1.25-1.28,1.91.74.17,1.59.65,2.23.46,4.17-1.24,8.29-2.64,12.44-4,2.12-.68,2.94-.47,4.31,1.05-1,2.26-3.46,2.44-5.12,2.24-4-.48-6.87,1.83-10.23,2.9a21.6,21.6,0,0,0-4.5,1.58c-.66.39-1.33,2-1,2.56,1,1.78.33,3.21-.27,4.79a22.12,22.12,0,0,0-.65,2.8,10.71,10.71,0,0,0,8.84-3.84c.58-.68.46-2,.55-3,0-.43-.3-.89-.27-1.33.06-1-.46-2.65,1.19-2.42a3.65,3.65,0,0,1,2.44,2.39,46.86,46.86,0,0,1,.52,9.24c-.22,4.4,1.37,8.4,2.15,12.59a24.72,24.72,0,0,1,.15,6.49c-.06.71-1.08,1.33-1.65,2-.36.42-.71.85-1.06,1.28Z"/><path d="M198.28,32.93c1.93,1.52,2.71,2.63,1.92,4.43-.67,1.52-.86,3.27-1.63,4.73a4.84,4.84,0,0,0,.71,6.1A35.81,35.81,0,0,0,204,52.72c.49-3.6-1-6.55-1.91-9.63a11.8,11.8,0,0,1,0-2.74c4.2,4.19,6.41,8.57,7,13.61.16,1.42-.5,3.95-1.42,4.3A27.93,27.93,0,0,1,198.84,60c-5.37.19-10.41,1.75-15.55,3-3.48.86-6.93,1.76-10.69.91-2.35-.53-3.57-1.67-3.9-3.76-.75-4.69-1.33-9.4-2-14.1-.07-.45,0-1-.21-1.35-2.9-4.28-1.17-9.08-1.83-14.1,1.33-.12,2.85-.72,3.66-.21s1.34,2.09,1.65,3.28c.65,2.54,2.62,3.55,5.09,2.59,2.63-1,5.33-1.88,8-2.82,2.33-.82,2.7-1.73,2-4.88a4.59,4.59,0,0,0-4.18-2.92c-2,.16-4,.27-6.05.23-.51,0-1-.68-1.51-1,.41-.55.73-1.45,1.25-1.58,4.08-1.06,8.2-1.93,12.28-2.94,3.41-.84,6.77-1.91,10.2-2.64a49.67,49.67,0,0,1,9.07-1c-2,2.15-4.69,2.16-7.21,2.74a20.44,20.44,0,0,0-3.75,1.67c.55.61.65.82.76.82,4.7,0,4.76,4,5.87,7,.17.48-.8,1.8-1.5,2.07-1.47.57-3.16.56-4.67,1.07-1.08.37-2.81,1.18-2.83,1.83a6.73,6.73,0,0,0,1.41,4.38c.87,1,2.25.34,2.65-1.29C197.18,35.71,197.72,34.51,198.28,32.93ZM174.67,61.5c1,0,1.27,0,1.57-.09,4.49-.92,9-1.78,13.46-2.81,3-.7,6-1.63,9-2.51,1.66-.49,1.75-1.62.84-2.81-.75-1-1.75-1.77-2.58-2.7-2.17-2.45-2.31-2.39-4.25.21-.58.79-1.95,1.83-2.55,1.61a3.29,3.29,0,0,0-3.59.78C183.22,56,180,59,175,58.3c-.43-.06-1.26,1.27-1.52,2.08C173.35,60.66,174.45,61.31,174.67,61.5Zm12-25.37-.24-.7c-.37,0-.83-.27-1.1-.12-2.81,1.46-5.81,1.75-8.93,2-2.86.24-3.51,2-2.7,4.83a17.17,17.17,0,0,1,.52,3.86c.08,2.25,0,4.51,0,6.77,0,1.24.58,1.5,1.73,1.26a22.37,22.37,0,0,0,11-5.4,3.7,3.7,0,0,1,2.39-.73c2,0,4-2.77,3.08-4.49-.38-.67-1.26-1.07-1.9-1.59-.42.56-.84,1.11-1.24,1.68-.88,1.27-1.62,3.49-2.65,3.64a10.55,10.55,0,0,0-7.37,4,32.51,32.51,0,0,1-1.91-3.19c-.49-1.09-.76-2.29-1.16-3.43-.28-.82-.64-1.62-1-2.42a9.85,9.85,0,0,1,2.78-.69C182.28,41.56,183.67,37.65,186.69,36.13Zm5.77-5.59c.83-1.05,2.55-2.38,2.31-3.08a8.12,8.12,0,0,0-3.2-4.19c-.83-.5-2.69.54-2.69,2.33C188.88,27.08,191,30.13,192.46,30.54Zm-13,13.78.7.76c1.07-.27,2.79.84,2.93-1.34,0-.6-.88-1.26-1.37-1.9Z"/><path d="M572.08,22.08c1.45,1.69,5,2,6.73,1.13,1.57-.74,3.27-1.37,4.53.39s.67,4.82-1,5.83c-1.31.78-2.3,1.74-1.63,3.1s2.21,1.5,3.84,1.06a22.13,22.13,0,0,1,5.27-.6c.68,0,1.36.62,2,1-.55.56-1,1.48-1.65,1.61-2.48.51-5,.74-7.52,1.11-.71.1-1.4.3-2.09.46l-.07.67a6.74,6.74,0,0,0,2.38.65,44.79,44.79,0,0,0,4.94-1c2.52-.53,4.45.85,4.49,3.35.06,3.27.15,6.55-.06,9.81-.07,1-1.06,2.62-1.7,2.66-1.38.08-1.51-1.34-1.54-2.59-.08-2.69-.18-5.39-.49-8.07A3.51,3.51,0,0,0,584.37,40c-.89.21-1.71.69-2.6.86a18.3,18.3,0,0,0-2.58.31,2.24,2.24,0,0,0,.7.17c1.7-.1,3.73,0,4.2,1.69.53,1.94.82,4.25-1.29,5.89a3.23,3.23,0,0,0-1.12,2c-.38,2.39-1.85,2.71-4,2.73A10.87,10.87,0,0,0,573.25,55c-1.5.75-2.82.43-3-1.48a49.39,49.39,0,0,1,.19-8.85,28.44,28.44,0,0,1,1.6-5.3c-2.88-.89-6.6,1.64-6.6,4.87,0,5.38,0,10.75,0,16.13a8.36,8.36,0,0,1-.45,2.91,10.8,10.8,0,0,1-1.53,2.23,12.43,12.43,0,0,1-1.42-2.09,5.78,5.78,0,0,1-.33-2.24c0-6.15-.07-12.31,0-18.46.07-5.19.28-10.38.48-15.57a9.56,9.56,0,0,1,.59-2.1l.8,0c.3,2.48,1,5,.83,7.44-.23,3.6.86,4.9,4.42,4.27A56.67,56.67,0,0,0,575,35.65c.88-.25,2.26-1.63,2.11-2a4.73,4.73,0,0,0-2.32-2.45c-1.22-.59-3.15-.23-3.92-1.07s-.53-2.61-.64-4c-.3-3.71-1.23-4.31-4.85-3.47-.78.18-1.77-.53-2.66-.84a7.37,7.37,0,0,1,1.52-2.19,5.86,5.86,0,0,1,2.64-.66,39.16,39.16,0,0,1,6.73-.44c6.78.49,13.15-1.29,19.56-3,1.77-.48,3.57-.85,5.36-1.28,2.4-.57,3.64.33,3.69,2.81.06,3-.09,6.08,0,9.11.25,5.94.79,11.88.86,17.82a102,102,0,0,0,1.36,12.83,11.9,11.9,0,0,1-.84,5.33c-.22.63-1.72,1.21-2.53,1.08-.51-.08-1.18-1.5-1.15-2.31.2-6,.94-12,.77-18-.2-7-1.15-14.08-1.8-21.12a6.08,6.08,0,0,0-.48-1.75c-.75-1.9-2.16-2.4-4.13-2-4.51.88-9.07,1.55-13.59,2.37C577.94,20.82,575.22,21.43,572.08,22.08Zm7.06,1.78-4.32,2.54c-1,.61-1.26,2-.25,2A8.66,8.66,0,0,0,579.08,27C579.5,26.7,579.14,25.15,579.14,23.86Zm-4.58,27.27,1.42.12a8,8,0,0,0,.33-2.52c0-.29-1.24-.37-1.91-.55C574.46,49.16,574.51,50.14,574.56,51.13Z"/><path d="M629.2,34.62c1.27-3.6,6.28-1.68,8.14-5.77-3.21.81-5.9,1.53-8.61,2.16a43.31,43.31,0,0,1-7,1.35c-1,.06-2.87-1.05-2.89-1.66,0-1.55,1.54-1.5,2.83-1.52,5.64-.09,10.75-2.07,16.06-4.24-1-1.48-1.79-2.12-3.4-1.5a11.28,11.28,0,0,1-3.86.55c-.47,0-1-.56-1.42-.87.42-.45.77-1.13,1.29-1.32a17,17,0,0,1,4-1c2.41-.21,3.23-1.7,3.63-3.76a22.32,22.32,0,0,1,1-2.91c1,1,1.86,1.59,2.17,2.36.8,2,1.91,2.83,4.06,1.95a21.59,21.59,0,0,1,2.47-.5c4.48-1.21,6.52,2.15,8.82,4.78,1,1.17,0,2.27-1.17,2.93-3.84,2.16-7.7,4.29-11.56,6.44-.26.15-.5.36-.75.54.69,1.51,1.52,2.14,3,1.21a1.9,1.9,0,0,1,.82-.4c1.38-.08,3.2-.54,3.66,1.14.41,1.52-1.2,2-2.46,2.46a17.74,17.74,0,0,0-3,1c-.67.36-1.12,1.13-2,2.07,3.64.64,6.71-1.44,9.79.56-2.15,2.6-5,2.42-7.68,3a25.23,25.23,0,0,0-5.65,1.68c-.67.33-1.14,1.89-1,2.79.21,1.48,1.38,1.14,2.55.8A53,53,0,0,1,649.28,47c2.79-.33,4.7,2.32,4.22,5.11-1.19,7-5.46,11-12.28,12.59a13.86,13.86,0,0,0-3.38,1.34c-1.81,1-3.26.64-3.52-1.24-.65-4.86-1.77-9.72-.62-14.66a12,12,0,0,0,0-2.18c-1.62.58-2.93,1-4.21,1.53-4.11,1.72-5.53,2.49-7.59-.23,1.53-.75,3-1.6,4.52-2.2,3.14-1.21,6.35-2.21,9.47-3.47.67-.27,1-1.28,1.55-1.95a7,7,0,0,0-2.4-.44c-1.42.27-2.75,1-4.17,1.27a16.16,16.16,0,0,1-3.19,0l-.29-.92a29.69,29.69,0,0,1,3.66-2.42c1.8-.84,3.76-1.32,5.57-2.15.58-.27.87-1.16,1.3-1.76-.72-.27-1.47-.83-2.16-.76-2.09.2-4.15.63-6.23,1ZM640.44,54.9l0,.21c1.71-.39,3.46-.67,5.11-1.21,1-.35,2.87-.46,2.17-2.26-.51-1.33-1.78-1.61-3.29-1.16-1.82.54-3.75.68-5.56,1.22a2.34,2.34,0,0,0-1.31,1.65c-.05.47.68,1.17,1.22,1.5S639.9,54.9,640.44,54.9Zm-.29,7.18c2.17-1.19,4-2.15,5.81-3.25.3-.18.3-.92.32-1.41a1.37,1.37,0,0,0-.89-.27,43.48,43.48,0,0,0-5.59,1.09,2.53,2.53,0,0,0-1.24,1.94C638.53,60.68,639.41,61.24,640.15,62.08Zm7-38.87V22.13a10.36,10.36,0,0,0-2.09-.86c-1.31-.2-2.68,0-2.73,1.62,0,.52,1.2,1.54,1.82,1.51A9.69,9.69,0,0,0,647.16,23.21Z"/><path d="M697.36,35.72c-.37.91-1,1.7-.93,2.42.54,5.16-2.67,8.57-5.56,12.15-1.42,1.78-1.53,3.7-.32,5.93,2.65-1.45,3.75-1.29,5.89.9,1.39,1.41.6,2.82-.44,3.76-1.31,1.18-2.63.33-3.57-.81a28.93,28.93,0,0,1-2-3.28c-.33,1.39-.49,2.13-.67,2.87-.5,2.06-.89,4.15-1.56,6.16A2.26,2.26,0,0,1,686.44,67c-.47,0-1.11-.81-1.37-1.39a5.79,5.79,0,0,1-.45-2.44c.1-4,.26-8,.45-12.05.08-1.61.34-3.21.45-4.82s0-3.52-1.83-4.38c-1.3-.59-3.74,1.12-4.8,2.93q-2.65,4.5-5.52,8.87a7.16,7.16,0,0,1-2.1,2c-.6.39-1.9.8-2.08.57-.54-.68-1.14-1.85-.88-2.51a61.52,61.52,0,0,1,3.77-8.06c4.64-8.15,9.07-16.37,11.6-25.46.49-1.75.89-3.53,1.41-5.27.17-.55.57-1,1.57-1.65a20.33,20.33,0,0,1,1.18,3.8c.3,2.64.95,3.08,3.63,2.37a5.28,5.28,0,0,1,3.24,0c.88.39,1.4,1.58,2.07,2.42-1,.74-2,2-3.08,2.09-1.61.19-3.31-.48-5-.62-.56,0-1.52.25-1.68.64a21.41,21.41,0,0,0-1.45,4.78c-.23,1.51,1.09,1.53,2.1,1.35a24.62,24.62,0,0,0,3.76-1c1.6-.54,2.49-.28,2.6,1.63a4.12,4.12,0,0,0,1,2.46c1.21,1.26,2.33.88,2.72-.82.31-1.39,1.13-1.89,2.49-2.25a39.39,39.39,0,0,0,6.65-2.4c1.67-.79,2.14-2.31,1.46-4.12a25.07,25.07,0,0,1-1.58-5c-.26-1.87,1-2.76,2.58-1.81a6.63,6.63,0,0,1,2.91,3.29c1.36,4.27,2.51,4.91,6.82,3.19A22.48,22.48,0,0,1,723.23,22a2.48,2.48,0,0,1,2,.67,2.21,2.21,0,0,1,0,1.89,4.11,4.11,0,0,1-4.64,2.67c-3.63-.82-6.78.93-10.14,1.14s-5.16,2.52-7.5,4c-1,.66-1.24,2.49-1.87,3.77-.4.8-.87,1.57-1.31,2.35-.61-.64-1.23-1.27-1.83-1.93A9.22,9.22,0,0,1,697.36,35.72Zm-6.88-1.45c-.06-.3-.13-.59-.19-.88a17.79,17.79,0,0,0-4.06-.84A4.12,4.12,0,0,0,683.69,34a8.75,8.75,0,0,0-1.44,2.8,1.77,1.77,0,0,0,.1,1.41,1.29,1.29,0,0,0,1.2.3C685.89,37.13,688.18,35.68,690.48,34.27Zm2.06,4c-2.14-.87-3.15-.36-3.17,1.21,0,.44.77.89,1.19,1.34Z"/><path d="M397.75,47.22c.13,3.06-1.09,4.07-4.69,4.41-4.15.39-4.55,1.44-4.27,5.69.24,3.47-.5,7-1,10.5-.09.69-1,1.26-1.54,1.89-.52-.76-1.42-1.49-1.49-2.3-.31-3.61-.39-7.25-.54-10.88,0-.76,0-1.53,0-2.31-3.58-1.11-6.86,2.2-10.46-.15,2-.65,4.08-1.22,6.05-2a13.68,13.68,0,0,0,3.88-2.18c.46-.39.32-1.67.14-2.47,0-.21-1.37-.28-2-.14-4.63.92-8.58,3.35-12.71,5.48-3.59,1.84-7.64,1.61-11.56.71a4.6,4.6,0,0,1-1.23-.8c.4-.46.63-1,1-1.1,3.21-1.11,6.43-2.22,9.7-3.18,2-.61,4.2-.86,6.24-1.49.64-.19,1-1.12,1.56-1.71a9.59,9.59,0,0,0-2.28-1,25,25,0,0,0-3.57,0l-.23-.92a12.22,12.22,0,0,1,2.8-1.4c3-.63,3.83-2.55,2-4.87-1.17-1.46-.52-2.28,1-2.61,1.86-.42,3.78-.58,5.65-1a5.29,5.29,0,0,0,4-6c-.09-.59,0-1.55.38-1.79,2.65-1.72,2.64-4.65,3.5-7.18.1-.28-.08-.7.06-.92.64-1,1.35-1.87,2-2.79a10.73,10.73,0,0,1,1.16,3.11c.15,4.07,1.48,5.08,5.4,3.9.93-.29,2.17-1.22,2.61.55s-.64,2-2.07,2.28c-3,.62-6.4.63-8.41,3.63a3.19,3.19,0,0,0-.64,2L396,28.41c-.33,1.15-.43,1.56-.55,2-.21.69-.81,1.74-.57,2a6.14,6.14,0,0,0,2.47,1.28c.45.14,1.07-.31,1.56-.21a22.52,22.52,0,0,1,2.71.88,19,19,0,0,1-2,2.31,4.19,4.19,0,0,1-1.74.52c-3.09.72-3.61,2-1.9,4.48,1.27,1.86-.49,1.76-1.44,2a27.67,27.67,0,0,0-3.94,1,2.85,2.85,0,0,0-1.48,2.12c.07,1.34,1.23,1.85,2.57,1.59.75-.14,1.46-.43,2.21-.56C395.18,47.56,396.45,47.41,397.75,47.22ZM390,37.33c1.18-1.42,3.06-2.42,1.85-4.35-.3-.47-2.47-.5-3,0C387.24,34.6,388.3,36,390,37.33Zm-10.19,5.09,1.65,2,2.74-2.4c-.5-.52-1.18-1.55-1.46-1.45A15,15,0,0,0,379.79,42.42Zm.57-3.62,2.44-2.35c-.39-.39-1-1.17-1.13-1.11a28.88,28.88,0,0,0-2.6,1.95Z"/><path d="M522,26.23l-2.88-1.69c.94-.77,1.81-1.44,2.61-2.18s2-1.49.83-2.56c-.62-.56-1.84-.49-2.8-.59-.33,0-.71.28-1.64.69,1.25-3.35,5.3-2.9,6-5.75,3.66,1.65,3.56,1.63,2.61,5-1,3.65-1.82,7.37-2.7,11.06a1.83,1.83,0,0,0,0,1.16c1.15,2.19-.53,3.12-2,3.59-4.06,1.34-8.24,2.31-12.32,3.58-2.25.7-4.4,1.69-6.57,2.61-1.65.7-3.22,1.92-5,.47.05-.32,0-.54.11-.6,3.75-2.37,3.55-4.45,2.63-8.81-.72-3.41-1.11-6.9-1.64-10.35l.89-.46c.58.65,1.44,1.2,1.68,1.95.5,1.58.59,3.29,1,4.9A29.7,29.7,0,0,0,505,33.92c-.36-4.74-.67-9.5-1.1-14.24-.1-1.16-.26-2.44,1.11-2.47.83,0,2.32,1,2.41,1.73a32.78,32.78,0,0,1-.1,6.49c-.19,2.35-.74,4.71.85,7.11.5-.58,1.19-1,1.19-1.45,0-1.58.43-2.39,2.19-2.6.48,0,1.13-1.6,1.09-2.43s-.79-1.72-1.83-.48a6.18,6.18,0,0,1-1.36,1l-.77-.42c.45-1.43.81-2.91,1.37-4.3,1.17-2.87,2.42-5.71,3.68-8.54.23-.51.65-1.25,1-1.29a2,2,0,0,1,1.49.87,3.72,3.72,0,0,1-.26,4.88c-1.09,1.24-1.19,2.34-.74,4.07.57,2.22,1.58,4.73-.14,7.1a2.84,2.84,0,0,0,.06,2.28c.64,1.57.07,2.05-1.43,2.23a13.4,13.4,0,0,0-2.81.8c-.05,0,.09,1,.21,1a7.09,7.09,0,0,0,3.05.17A24.31,24.31,0,0,0,519.36,33a2.28,2.28,0,0,0,.34-2.16c-1.43-1.31-1.32-2.17.33-3.09A15.35,15.35,0,0,0,522,26.23Z"/><path d="M442.29,43.93c-3,.51-5.55,1-8.11,1.35a14.2,14.2,0,0,1-4.4.17c-.81-.15-1.43-1.26-2.14-1.94l.44-.75c3.42-.47,6.83-.93,10.24-1.42,1.22-.17,2.43-.37,3.64-.6a2.81,2.81,0,0,0,2.54-3.25c-.15-2.85-.31-5.7-.33-8.55a2.08,2.08,0,0,1,.94-1.58,2,2,0,0,1,1.77.3c2,1.65,1.39,3.91,1.22,6-.06.84-.3,1.67-.29,2.51,0,1.85,1.17,2.88,2.86,2.26,3.7-1.36,7.28-3,11-4.42a6.31,6.31,0,0,1,3.45-.11,2.4,2.4,0,0,1,1.4,1.79c0,.43-1,1.22-1.64,1.38-2.89.73-5.84,1.21-8.73,1.94A31.3,31.3,0,0,0,450.5,41c-1.37.64-2.07,1.93-.61,3.14,2.86,2.38,5.63,5,8.84,6.8a77.16,77.16,0,0,0,12.53,5.47c2,.69,4.33.17,6.47.47,1,.14,2.51.79,2.68,1.47.32,1.34-1.15,1.4-2.21,1.89-5.71,2.67-10.19.11-14.67-3-2.85-2-5.87-3.64-8.66-5.65-2.06-1.49-3.83-3.37-5.8-5-1.73-1.42-2.86-1.19-3.45,1A16.45,16.45,0,0,1,440,55.85c-1.33,1.15-2.84,2.11-4.16,3.27-1,.89-2.06,1.61-3.08.33s-.42-2.65.82-3.56a28.3,28.3,0,0,1,3.31-2.08C440.57,51.77,441.76,48.37,442.29,43.93Z"/><path d="M717.31,56.18c.75.07,1.06.12,1.37.13,1.36,0,3.37-.36,3.37,1.43,0,1.14-1.44,2.67-2.62,3.35-2.23,1.29-5.66,0-5.77-2a9.77,9.77,0,0,1,1.15-4c1.18-2.81,1.23-2.84-.5-4.46-2.22,1.19-2.76,3.19-2.91,5.53-.19,2.88-.54,5.76-.95,8.63-.09.58-.73,1.09-1.12,1.64-.49-.43-1.15-.78-1.43-1.32A7.3,7.3,0,0,1,706.77,62c.06-8.77.24-17.54.46-26.31a2.37,2.37,0,0,1,1-1.81,45.18,45.18,0,0,1,6.29-2.68,2.68,2.68,0,0,1,2.44.54,2.94,2.94,0,0,1-.29,2.61c-.45.61-1.56.81-2.42,1-.4.12-.9-.16-1.36-.16-1.34,0-3-.46-2.86,1.9.11,2.06,1.17,3.28,3.06,3.23a5,5,0,0,1,.94,0c.54.08,1.07.24,1.61.37a5.57,5.57,0,0,1-.72,1.58,32.18,32.18,0,0,0-2.45,2.35,2.08,2.08,0,0,0,0,2,2.57,2.57,0,0,0,2,.66,7.32,7.32,0,0,0,2.55-1c2.06-1.16,3.79-1,4.91.53s.57,3.35-1.2,4.87A17.48,17.48,0,0,0,718.32,54,9.84,9.84,0,0,0,717.31,56.18Z"/><path d="M500.73,56.28c-.53-1.7-.16-2.61,1.59-3,4.17-.93,8.31-2,12.47-3,1.88-.45,2.55-1.59,2.73-3.45a31.06,31.06,0,0,1,1.27-4.93l-.45-.64c-2.23,1.1-4.41,2.34-6.71,3.28a40.94,40.94,0,0,1-6.27,1.92c-.49.11-1.18-.58-1.78-.91.56-.6,1-1.49,1.7-1.76,1.7-.65,3.56-.89,5.27-1.54,3.43-1.29,6.78-2.79,10.21-4.09,1-.36,2.15-1,2.9.62a2.46,2.46,0,0,1-.54,3.3,14.18,14.18,0,0,0-2.45,2.51,3,3,0,0,0-.51,2.38,2.68,2.68,0,0,0,2,1.34,5.53,5.53,0,0,0,3-.86,11.12,11.12,0,0,1,8.13-1.74c.25,2.77-.29,3.12-4.2,3.65a57.59,57.59,0,0,0-6,1.39c-1.85.46-2.22,1.87-1.75,3.41,1.2,4-.64,7.28-3.07,9.81s-6.21,2.84-9.74,1.72a22.73,22.73,0,0,1-4.14-1.89c-.47-.27-.66-1-1-1.57a5.49,5.49,0,0,1,1.82-.68c3,.07,5.91.38,8.87.37a4.72,4.72,0,0,0,4.79-5c0-.63,0-1.25,0-1.87,0-3.07-1.15-3.66-4.12-2.55-3.87,1.44-7.81,2.68-11.75,3.91A6.46,6.46,0,0,1,500.73,56.28Z"/><path d="M207.4,16.74c3.43-2.4,6.84-.58,9.61,1.44,2.14,1.56,2.91,6.05,1.48,8.64a28.39,28.39,0,0,0-3.35,15c.18,6.81-.22,13.63-.4,20.45-.09,3.38-3.68,5.38-7.13,4A13.66,13.66,0,0,1,204.93,65c-.53-.37-1.25-1.17-1.13-1.58A2.33,2.33,0,0,1,205.37,62c1.21-.22,2.52.07,3.74-.14.8-.14,2.06-.7,2.17-1.24a45.56,45.56,0,0,0,.54-6.41c.07-1.88,0-3.78,0-5.67,0-.23.08-.46.09-.69.31-7.41.61-14.82,1-22.23C213.05,21.57,212.24,18.11,207.4,16.74Z"/><path d="M280.47,47c1.41,0,2.82,0,4.23,0,1.79-.08,3.13.26,3,2.47a3.33,3.33,0,0,1-3.33,3.11c-1.58-.19-3.1-.86-4.67-1.09a53.84,53.84,0,0,0-5.39-.4,15.17,15.17,0,0,0-2.33.13c-6.18.75-12.42,1.19-18.52,2.39a82.56,82.56,0,0,0-13,4.24,12,12,0,0,1-8.33.26c-.77-.25-1.22-1.42-1.82-2.16a10.35,10.35,0,0,1,2.08-1c5.21-1.19,10.42-2.43,15.68-3.42,4-.76,8.07-1.08,12.08-1.76,4.76-.8,9.47-1.89,14.23-2.64a39.89,39.89,0,0,1,6.09-.05Z"/><path d="M303.26,42.76c0-5.81-.05-11.62.06-17.43,0-.74.85-1.46,1.31-2.18a10.48,10.48,0,0,1,1.9,1.65c2.31,3.27,1.28,6.63.28,10.05a39.3,39.3,0,0,0-.68,5c-.47,3.18-1.11,6.33-1.39,9.52a7.11,7.11,0,0,0,.95,3.9,10.08,10.08,0,0,1,.36,10.4c-.55,1-1.46,1.55-2.27.33a5.9,5.9,0,0,1-1-2.73c-.25-3.31-.48-6.64-.46-10,0-2.85.38-5.7.59-8.54Z"/><path d="M251,48.52a3.2,3.2,0,0,1-2.8-3.45c-.14-3.22-.18-3.12-3.38-3.31a16.39,16.39,0,0,1-5.07-1.2c-.67-.28-1-1.46-1.42-2.23l2.23-1.19c.06,0,.15,0,.23,0a52.39,52.39,0,0,0,24.31-4.23,8.19,8.19,0,0,1,1.07-.42c1.14-.32,2.82-1.06,3,.55.12.94-1.35,2.74-2.41,3-2.65.71-5.51.6-8.21,1.13a20.24,20.24,0,0,0-5.95,2.08,2.06,2.06,0,0,0-.38,3.51,18.57,18.57,0,0,0,1.58,1.36c1.32,1,1.09,1.86-.12,2.68C252.74,47.44,251.78,48,251,48.52Z"/><path d="M372.53,31.52c-.55,0-1.23.2-1.62,0a18.12,18.12,0,0,1-2.2-1.92,6.93,6.93,0,0,1,2.34-1.25c3.29-.32,3.53-.83,3-4.08a27.36,27.36,0,0,1,.1-6.7c0-.5.78-1.11,1.33-1.34.25-.1.9.59,1.26,1,1.44,1.73,2.55,3.53,2.43,6-.06,1,1,2.09,1.5,3.18.24.57.45,1.69.26,1.79-2.66,1.39-5.39,2.66-8.11,3.95Z"/><path d="M259,32.45c-.94-.3-2.44-.82-4-1.3a49.1,49.1,0,0,1-5-1.57c-.77-.33-1.29-1.23-1.92-1.87a10.1,10.1,0,0,1,2.41-.82,80,80,0,0,1,9.27-.42,5.14,5.14,0,0,1,3.67,1.76C265.15,30.68,263.38,32.5,259,32.45Z"/><path d="M573.15,61.92c-1.68-.55-3-.89-4.24-1.42-.45-.2-1-.89-1-1.29s.77-.91,1.26-1c3.18-.54,6.37-1,9.58-1.42,2.46-.28,5-.4,7.43-.44.6,0,1.22.61,1.83.94-.49.46-.91,1.19-1.49,1.34C582.06,59.81,577.52,60.87,573.15,61.92Z"/><path d="M535.26,36.36c-1.31-2.52,3.06-2.37,2.29-4.76l-5.58.5c.76-1,1-1.78,1.51-1.9,3-.73,5.94-1.4,8.95-1.9,1.38-.24,2.89-.07,3.26,1.75.44,2.1-.91,3.1-2.61,3.71C540.58,34.66,538,35.44,535.26,36.36Z"/><path d="M493.19,38.64c1.59,1.28,2.75,2.47,1.4,4.79-1,1.74-1.25,3.89-2.13,5.72-.33.7-1.47,1-2.24,1.52-.49-.77-1.28-1.49-1.42-2.32a5.68,5.68,0,0,1,1.78-5.44C491.73,41.81,492.32,40.12,493.19,38.64Z"/><path d="M398.18,41.49a10.34,10.34,0,0,1,2.46-1.5c3-.88,6-1.59,9-2.35a2.49,2.49,0,0,1,.94,0c1.21.22,2.42.47,3.61.78,0,0,0,1.06-.25,1.17a11.21,11.21,0,0,1-3.83,1.52c-2.9.22-6-1.57-8.69,1-.55.52-1.94.16-2.95.2Z"/><path d="M259.68,47.42a43.47,43.47,0,0,1,1.82-6c.25-.54,1.81-.78,2.71-.67,1.32.16,1.78,1.22,1.17,2.42A8.39,8.39,0,0,1,259.68,47.42Z"/><path d="M320.05,34c-2.52,2.39-4.6,4.4-6.84,2.29C314.75,34.51,318.57,33.23,320.05,34Z"/><path d="M315.61,29.48a13.23,13.23,0,0,1-2.42,1.25c-.51.15-1.17-.18-1.76-.3.4-.48.72-1.2,1.23-1.39a11.17,11.17,0,0,1,2.67-.37Z"/></svg>