<svg id="圖層_1" data-name="圖層 1" xmlns="http://www.w3.org/2000/svg" viewBox="0 0 434.27 90.97" preserveAspectRatio="xMinYMid"><defs><style>.cls-1{fill:#0460ad;}.cls-2{fill:#fcdd01;}.cls-3{fill:#040400;}.cls-4{fill:#edf4f9;}.cls-5{fill:#d50839;}</style></defs><path class="cls-1" d="M101.2,0a19.32,19.32,0,0,1-1.63,2.91q-8.5,14.64-17,29.27Q73.46,47.77,64.37,63.35L51.3,85.76c-.47.81-.66.81-1.16-.05Q45.82,78.35,41.5,71,34.35,58.77,27.16,46.57l-17-28.91L.56,1.32C.42,1.08.32.81,0,.69-.09.11.13,0,.71,0Q51,0,101.2,0ZM35.35,52.3a7.26,7.26,0,0,0,.84,1.52c.21.42.41.45.86.25a8.76,8.76,0,0,1,6.46-.56,6.66,6.66,0,0,0,5-.11,4.28,4.28,0,0,1,3.6-.16,11.28,11.28,0,0,0,7.66.3,6.52,6.52,0,0,1,3.79,0c1.67.52,1.67.52,2.41-1.08l.18-.46c.5-.09.72-.49.94-.87.48-.82.93-1.64,1.39-2.46a42.19,42.19,0,0,0,2.26-3.91l1.77-3.12c.08-.08.19-.14.24-.24,1.88-3.53,4.09-6.87,6-10.38,1.55-2.83,3.19-5.6,4.81-8.39Q87.3,16.21,91,9.76C92,8.11,93,6.47,93.92,4.81c.12-.2.34-.43.16-.68S93.66,4,93.44,4l-1.6,0H9c-.48,0-1,0-1.44,0-.29,0-.7-.19-.84.14a1,1,0,0,0,.22,1A10.25,10.25,0,0,1,8.44,7.48c.32.65.92,1.19.88,2,1.19.72,1.29,2.18,2.12,3.17,1.18,1.42,1.66,3.28,2.79,4.78a30,30,0,0,1,2.2,3.87,27.9,27.9,0,0,0,2,3.11c.83,1.11,1,2.61,1.9,3.64a29.22,29.22,0,0,1,2.4,3.7c.94,1.47,1.68,3,2.69,4.47a9.46,9.46,0,0,1,1.35,2.42,9.85,9.85,0,0,0,1.93,3l1.79,3.1c.22.3-.23.72.17,1,.95.62,1.15,1.8,1.91,2.56.69,1.18,1.38,2.35,2.05,3.53A.77.77,0,0,0,35.35,52.3Zm6.15,4.25c-.77-.2-1.52.37-2.34.63-.33.1-.87.26-.56.8.57,1,.69,1.31,1.43,1a7.73,7.73,0,0,1,4.25-.54,8.57,8.57,0,0,0,4.85-.31,5,5,0,0,1,3.85.2c1.35.52,2.8,1.07,4.31.52a7.87,7.87,0,0,1,4.3-.25c.62.12,1.7-.82,1.64-1.46a.39.39,0,0,0-.39-.37,6.71,6.71,0,0,0-2.56.07,9.13,9.13,0,0,1-5.1.52c-1.23-.29-2.42-.67-3.62-1.06a2.13,2.13,0,0,0-1.71,0,8,8,0,0,1-5.21.78A17.13,17.13,0,0,0,41.5,56.55Zm4,4.88c-.94,0-2.3-.3-3.58.33-.31.16-1,.05-.66.65s.26,1.35,1.19,1.1a4.57,4.57,0,0,1,2.69-.23A4.21,4.21,0,0,0,48.1,63a6.68,6.68,0,0,1,5.21-.24,6,6,0,0,0,2.83.7,8.44,8.44,0,0,1,3.14-.18c.61.16,1-.66,1.07-1.19s-.58-.63-1.08-.64a2,2,0,0,0-.73.17,2.89,2.89,0,0,1-.8.22,8.65,8.65,0,0,1-4.4-.77,3.65,3.65,0,0,0-2.87-.15A13.3,13.3,0,0,1,45.53,61.43ZM46.21,66a2.89,2.89,0,0,0-2,.5.48.48,0,0,0-.14.78c.21.29.27.88.81.62a4.73,4.73,0,0,1,2.23-.25,4.11,4.11,0,0,0,1.8-.32,3.65,3.65,0,0,1,2.87-.19,10,10,0,0,0,4.43.48,1.66,1.66,0,0,0,1.56-1c.12-.24.35-.49.14-.77s-.5-.14-.76,0a6.32,6.32,0,0,1-4.12,0,4.57,4.57,0,0,0-3.17-.35A5.8,5.8,0,0,1,46.21,66Zm2.13,4.27c-.51.14-1,0-1.46.18-.27.14-.51.26-.49.6a1.34,1.34,0,0,0,2,1.14,6.09,6.09,0,0,1,4.07-.58,9.28,9.28,0,0,0,1.83.26c.69.06.77-.63,1.1-1a.42.42,0,0,0,0-.61,1.17,1.17,0,0,0-1.13-.07,3.57,3.57,0,0,1-2.39-.11A2,2,0,0,0,50.35,70,3.71,3.71,0,0,1,48.34,70.27Zm2.4,4.27a2.5,2.5,0,0,0-1.14.22c-.63.25-.82.57-.38,1.2a21.24,21.24,0,0,1,1.19,2c.28.49.51.67.82,0a18,18,0,0,0,.88-1.61c.15-.42.93-.67.42-1.27a2.37,2.37,0,0,0-1.37-.53C51,74.55,50.88,74.56,50.74,74.54Z"/><path class="cls-2" d="M28.71,41.67a9.85,9.85,0,0,1-1.93-3,9.46,9.46,0,0,0-1.35-2.42c-1-1.42-1.75-3-2.69-4.47a29.22,29.22,0,0,0-2.4-3.7c-.9-1-1.07-2.53-1.9-3.64a27.9,27.9,0,0,1-2-3.11,30,30,0,0,0-2.2-3.87c-1.13-1.5-1.61-3.36-2.79-4.78-.83-1-.93-2.45-2.12-3.17,0-.81-.56-1.35-.88-2A10.25,10.25,0,0,0,6.92,5.19a1,1,0,0,1-.22-1c.14-.33.55-.13.84-.14.48,0,1,0,1.44,0H91.84l1.6,0c.22,0,.49-.09.64.11s0,.48-.16.68C93,6.47,92,8.11,91,9.76Q87.3,16.2,83.58,22.64C82,25.43,80.32,28.2,78.77,31c-1.93,3.51-4.14,6.85-6,10.38,0,.1-.16.16-.24.24a27.39,27.39,0,0,0-3.51-.1c-.47,0-.81-.07-.8-.69,0-2.08.07-4.16,0-6.23,0-.83.31-1,1-1,1.57.06,3.15,0,4.72,0,.41,0,.91-.1.82-.61-.14-.8.45-1.76-.45-2.41-.11-.08-.32,0-.49,0-.79,0-1.58,0-2.36,0s-1.09-.3-1-1.06a1.68,1.68,0,0,0,0-.5c-.16-.79.26-.89.91-.87.89,0,1.79,0,2.69,0,.48,0,.84-.23.67-.8s.14-.81.69-.81h2.19c.55,0,.91-.2.82-.88a10.62,10.62,0,0,1,0-1.6c0-.59-.26-.84-.88-.84l-11,0c-1.29,0-1.31,0-1.25-1.3,0-.63-.22-.85-.84-.81s-1.35,0-2,0c-.37,0-.64-.11-.69-.56-.12-1.2-.14-1.2-1.36-1.18h-.59c-1.29,0-1.31,0-1.31-1.26,0-.59-.19-.82-.84-.81-4.75,0-9.49,0-14.24,0-1.11,0-1.14,0-1.09,1.12,0,.69-.25,1-.94,1s-1.18,0-1.77,0A.59.59,0,0,0,39,20c-.2,1.22-.21,1.22-1.44,1.23a9.91,9.91,0,0,1-1.09,0c-.73-.08-.95.22-.88.92.11,1.16,0,1.19-1.1,1.19-3.63,0-7.25,0-10.87,0-.69,0-1,.24-.9,1a6,6,0,0,1,0,1.52c-.08.62.25.82.76.83.68,0,1.35,0,2,0s.9.14.75.78.16.84.71.86c.73,0,1.46.06,2.19,0,1.68-.07,1.67-.08,1.57,1.62,0,.52-.24.78-.77.77H28.15c-1.87,0-1.87,0-1.93,1.82a2,2,0,0,1,0,.25c-.11.67.2,1,.84.94,1.54,0,3.09,0,4.63,0,1,0,1.15.07,1.15,1,0,2,0,3.94,0,5.9,0,.73-.19,1-.88,1A16.15,16.15,0,0,0,28.71,41.67ZM20.29,14.76c.38-.66.4-.7-.23-1.09-.32-.2-.09-.38-.09-.57,0-.45,0-1-.64-.77a24.15,24.15,0,0,0-2.25.92c-.23.11-.4.25-.21.59,1.51,2.6,2.76,5.33,4.09,8,.31.64.78.64,1.32.29s1.15-.42.53-1.21c-.19-.24-.51-.69.06-.89a9.34,9.34,0,0,0,.91-.41c.26-.13.58-.19.72.15s-.11.45-.38.53-.76.28-.54.74.64.25,1,.12c.73-.28,1.44-.62,2.17-.92.5-.2.5-.46.15-.81-.19-.2-.48-.47-.2-.71a3.22,3.22,0,0,1,1.23-.64c.27-.07.33.33.36.57.11.66.4.83,1.06.59,1.22-.45,1.32-.66.7-1.82a4.72,4.72,0,0,1-.27-.61c-.93-2.23-1.84-4.46-2.78-6.68-.15-.37-.39-.74-.89-.55-.78.3-1.55.64-2.32,1-.37.17-.43.4-.25.81.37.81,1.32,1.33,1.19,2.39,0,.19.22.31.44.31s.8-.5.93,0-.6.23-.85.49-.68.51-1.12.22-.3-.71-.21-1.08.06-.72-.39-.87a1,1,0,0,1-.69-1.25c0-.19.08-.42-.12-.54s-.44,0-.6.19a1.63,1.63,0,0,1-1.19.53c-.27,0-.64,0-.73.29s.31.41.55.51c.53.23.8.63.48,1.13-.45.69,0,.92.49,1.12.29.13.64.21.66.53s-.27.59-.63.66-.43.26-.64.4a.25.25,0,0,1-.37,0c-.07-.11,0-.2.09-.29C21.41,15.21,21.32,15,20.29,14.76Zm51.09,3.4c-.06.48.06.73.41.86,2.78,1.12,5.48,2.39,8.19,3.67a.52.52,0,0,0,.8-.31C82,19.69,83.16,17,84.37,14.32c.22-.48.09-.75-.36-.91-2.86-1.06-5.67-2.27-8.48-3.45-.5-.21-.74-.13-.94.4-.61,1.6-1.27,3.17-1.94,4.75A31.12,31.12,0,0,1,71.38,18.16ZM62.85,8.83a.47.47,0,0,0-.52.49c0,.52-.55,1.21.33,1.51.7.24.81.62.58,1.29a10,10,0,0,0-.4,1.8c-.07.53-.25.8-.82.56-.24-.1-.55-.17-.69.07a2.47,2.47,0,0,0-.39,1.51c0,.43.54.41.88.49l8.35,1.91c.36.09.53-.07.61-.39a2.83,2.83,0,0,1,.19-.72c.27-.5.16-.79-.39-.94s-.61-.46-.43-1a13.06,13.06,0,0,0,.53-1.95c.1-.49.26-.7.82-.7.87,0,.7-.83.82-1.34s-.33-.67-.79-.7a10.17,10.17,0,0,1-2-.47c-.4-.12-.66-.38-.46-.82.32-.71,0-.9-.67-1a4.75,4.75,0,0,1-.82-.16c-.53-.17-.87-.09-.92.56s-.4.78-1,.6C64.75,9.26,63.87,9.08,62.85,8.83Zm-9.22-.72L52.75,8c-1-.1-1.15,0-1.11,1a38.57,38.57,0,0,1-.21,4c0,.6.21.84.74.88a10.41,10.41,0,0,0,1.76.07c.88-.09,1,.36.94,1.06a2,2,0,0,0,0,.41c.2,1.42,1.45.37,2.11.86.33.26.58-.25.61-.65a2.92,2.92,0,0,0,0-.59c-.08-.64.2-.85.83-.79s1.18,0,1.76.06c.36,0,.59-.09.63-.5.15-1.52.32-3.05.47-4.58.06-.57-.22-.82-.79-.81s-1.18,0-1.77,0-.86-.25-.72-.85c.09-.36,0-.65-.37-.7a11.41,11.41,0,0,0-1.75-.1c-.35,0-.54.27-.52.64,0,.59-.32.72-.8.69Zm-3.47,4.3c0-.47.05-1-.38-1.11-.7-.23-.73-.77-.79-1.32-.2-2.1-.2-2.13-2.32-1.81-.61.09-.84-.09-.88-.64,0-.37-.13-.71-.55-.7A8.71,8.71,0,0,0,44,7c-.33.06-.53.27-.42.6.26.82-.18,1-.87,1.14-1.84.32-1.84.33-1.63,2.19a.9.9,0,0,0,0,.16c.22.57.33,1.09-.48,1.29-.17,0-.22.22-.24.41-.09,1.1.38,1.49,1.47,1.22.29-.08.63-.28.84.06s-.07.53-.25.74-.39.54,0,.86c1.1,1,1.8.94,2.6-.34a1.85,1.85,0,0,0,.23-.44c.21-.64.54-.58,1-.24s1.2.82,1.81,1.22c.27.18.58.31.83,0s.77-.8.75-1.37-.57-.45-.9-.62c-.14-.08-.32-.14-.29-.35s.18-.21.31-.25a2.44,2.44,0,0,1,.65-.1C50,13.2,50.21,12.89,50.16,12.41Zm-18.78.79c.25,0,.48.12.32.55-.31.84-.61,1.68-1,2.49-.21.45-.41.8.15,1.13,1.1.64,1.43.66,1.84,0A12.68,12.68,0,0,0,33.78,15c.14-.38.34-.89.9-.47a20.82,20.82,0,0,0,3.59,1.81c.24.13.59.27.78,0a2.79,2.79,0,0,0,.58-1.63c0-.45-.51-.56-.87-.69a27.11,27.11,0,0,1-2.69-1.36c-.24-.12-.46-.32-.4-.59s.36-.23.57-.27c.52-.12,1-.22,1.55-.37a.6.6,0,0,0,.48-.77c-.21-.95-.7-1.25-1.64-1-.27.08-.54.13-.81.23-1.36.47-1.39.45-1.84-.86-.15-.42-.3-.94-.89-.79-.4.1-.8.24-1.21.33a.55.55,0,0,0-.44.7,3,3,0,0,0,.19.73c.35.73.09,1.08-.67,1.23-.52.11-1,.32-1.53.48-.26.08-.44.2-.37.54.21,1.17.53,1.38,1.69,1.07C30.91,13.29,31.08,13.27,31.38,13.2Z"/><path class="cls-3" d="M28.71,41.67A16.15,16.15,0,0,1,32,41.56c.69,0,.91-.22.88-1-.06-2,0-3.93,0-5.9,0-1-.15-1.07-1.15-1-1.54,0-3.09,0-4.63,0-.64,0-.95-.27-.84-.94a2,2,0,0,0,0-.25c.06-1.82.06-1.82,1.93-1.82h1.77c.53,0,.74-.25.77-.77.1-1.7.11-1.69-1.57-1.62-.73,0-1.46,0-2.19,0-.55,0-.85-.26-.71-.86s-.2-.8-.75-.78-1.34,0-2,0c-.51,0-.84-.21-.76-.83a6,6,0,0,0,0-1.52c-.08-.71.21-1,.9-1,3.62,0,7.24,0,10.87,0,1.15,0,1.21,0,1.1-1.19-.07-.7.15-1,.88-.92a9.91,9.91,0,0,0,1.09,0c1.23,0,1.24,0,1.44-1.23a.59.59,0,0,1,.7-.55c.59,0,1.19,0,1.77,0s1-.26.94-1c0-1.12,0-1.12,1.09-1.12,4.75,0,9.49,0,14.24,0,.65,0,.84.22.84.81,0,1.27,0,1.27,1.31,1.26h.59c1.22,0,1.24,0,1.36,1.18,0,.45.32.55.69.56.67,0,1.35.05,2,0s.86.18.84.81c-.06,1.3,0,1.3,1.25,1.3l11,0c.62,0,.88.25.88.84a10.62,10.62,0,0,0,0,1.6c.09.68-.27.86-.82.88H75.5c-.55,0-.88.17-.69.81s-.19.79-.67.8c-.9,0-1.8.05-2.69,0-.65,0-1.07.08-.91.87a1.68,1.68,0,0,1,0,.5c-.1.76.21,1.1,1,1.06s1.57,0,2.36,0c.17,0,.38-.06.49,0,.9.65.31,1.61.45,2.41.09.51-.41.6-.82.61-1.57,0-3.15,0-4.72,0-.74,0-1.06.13-1,1,0,2.07,0,4.15,0,6.23,0,.62.33.69.8.69a27.39,27.39,0,0,1,3.51.1l-1.77,3.12c-.58-.37-1.21-.11-1.81-.15s-.72.22-.69.71a12.67,12.67,0,0,1-.08,2.61c0,.33.15.52.32.74-.46.82-.91,1.64-1.39,2.46-.22.38-.44.78-.94.87-1.6-.45-3.17-1-4.89-.39a12,12,0,0,1-3.28.7,14.5,14.5,0,0,1-5.19-.85,7.83,7.83,0,0,0-4.95,0,12.33,12.33,0,0,1-3,.75,10,10,0,0,1-3.41-.82,6.63,6.63,0,0,0-6.08.86.77.77,0,0,1-.72-.46c-.67-1.18-1.36-2.35-2.05-3.53a.48.48,0,0,0,.33-.44c0-.9,0-1.79-.08-2.69a.49.49,0,0,0-.46-.52,2.93,2.93,0,0,0-1.87.11ZM50.57,28.34H45.1a2.89,2.89,0,0,1-.59,0c-.65-.12-.82.17-.82.79,0,1.75,0,1.78-1.71,1.76-.75,0-.92.26-.91,1,0,3.28,0,6.57,0,9.85,0,.38-.1.77.39.89s.66-.2.84-.53a8.94,8.94,0,0,1,6.06-4.8c.63-.15.57-.6.57-1s-.27-.69-.75-.68l-2.7,0c-.23,0-.56.13-.66-.18s.19-.43.39-.58c1.61-1.22,3.23-2.42,4.83-3.65a.73.73,0,0,1,1.05,0l5,3.74c.17.13.41.28.3.54s-.39.16-.6.16c-.79,0-1.57,0-2.36,0-.42,0-1-.24-1.14.49s0,1.15.77,1.43a9.42,9.42,0,0,1,3.75,2.32,12.19,12.19,0,0,1,1.63,2.35c.2.34.46.58.89.46s.38-.48.36-.82,0-.51,0-.76c0-3.12,0-6.24,0-9.35,0-.48,0-.83-.65-.85-1.51-.06-1.51-.07-1.57-1.59v-.08c0-.65-.24-.87-.91-.86C54.56,28.37,52.57,28.34,50.57,28.34Zm12.37,13.6h0v6.74C63,50,63,50,64.21,50.17c.67.12.79-.12.78-.68Q65,42,65,34.58c0-.61,0-1-.85-1s-1.24,0-1.21,1C63,37.06,62.94,39.5,62.94,41.94Zm-26.81,0h0c0,2.5,0,5,0,7.5,0,.37-.12.92.5.84s1.25.11,1.25-.85c0-5,0-10,0-14.92,0-.61-.14-1-.85-.92s-.87.28-.86.93C36.15,37,36.13,39.46,36.13,41.93Zm21.71,5.94v0c.4,0,.79,0,1.18,0s.69-.29.67-.74-.11-.82-.67-.75a13.17,13.17,0,0,1-2.35,0c-.48,0-.73.19-.72.69a.65.65,0,0,0,.72.74Zm-7.57-1.38c-.32,0-.72,0-1.11-.07s-.74.13-.74.65.1.83.68.82c.76,0,1.52,0,2.27,0,.52,0,.79-.19.78-.74s-.28-.75-.8-.71C51,46.46,50.67,46.47,50.27,46.49ZM42.8,47.87h.92c.45,0,.85-.07.86-.67s-.31-.79-.84-.78-1.29,0-1.93,0c-.47,0-.75.14-.76.66s.21.78.74.77Z"/><path class="cls-4" d="M35.35,52.3a6.63,6.63,0,0,1,6.08-.86,10,10,0,0,0,3.41.82,12.33,12.33,0,0,0,3-.75,7.83,7.83,0,0,1,4.95,0,14.5,14.5,0,0,0,5.19.85,12,12,0,0,0,3.28-.7c1.72-.58,3.29-.06,4.89.39l-.18.46c-.74,1.6-.74,1.6-2.41,1.08a6.52,6.52,0,0,0-3.79,0,11.28,11.28,0,0,1-7.66-.3,4.28,4.28,0,0,0-3.6.16,6.66,6.66,0,0,1-5,.11,8.76,8.76,0,0,0-6.46.56c-.45.2-.65.17-.86-.25A7.26,7.26,0,0,1,35.35,52.3Z"/><path class="cls-4" d="M41.5,56.55a17.13,17.13,0,0,1,3.14.47,8,8,0,0,0,5.21-.78,2.13,2.13,0,0,1,1.71,0c1.2.39,2.39.77,3.62,1.06a9.13,9.13,0,0,0,5.1-.52,6.71,6.71,0,0,1,2.56-.07.39.39,0,0,1,.39.37c.06.64-1,1.58-1.64,1.46a7.87,7.87,0,0,0-4.3.25c-1.51.55-3,0-4.31-.52a5,5,0,0,0-3.85-.2,8.57,8.57,0,0,1-4.85.31A7.73,7.73,0,0,0,40,59c-.74.32-.86,0-1.43-1-.31-.54.23-.7.56-.8C40,56.92,40.73,56.35,41.5,56.55Z"/><path class="cls-4" d="M45.53,61.43a13.3,13.3,0,0,0,4.94-.55,3.65,3.65,0,0,1,2.87.15,8.65,8.65,0,0,0,4.4.77,2.89,2.89,0,0,0,.8-.22,2,2,0,0,1,.73-.17c.5,0,1.12.11,1.08.64s-.46,1.35-1.07,1.19a8.44,8.44,0,0,0-3.14.18,6,6,0,0,1-2.83-.7A6.68,6.68,0,0,0,48.1,63a4.21,4.21,0,0,1-2.93.32,4.57,4.57,0,0,0-2.69.23c-.93.25-1-.63-1.19-1.1s.35-.49.66-.65C43.23,61.13,44.59,61.47,45.53,61.43Z"/><path class="cls-4" d="M46.21,66a5.8,5.8,0,0,0,3.66-.55A4.57,4.57,0,0,1,53,65.8a6.32,6.32,0,0,0,4.12,0c.26-.09.54-.25.76,0s0,.53-.14.77a1.66,1.66,0,0,1-1.56,1,10,10,0,0,1-4.43-.48,3.65,3.65,0,0,0-2.87.19,4.11,4.11,0,0,1-1.8.32,4.73,4.73,0,0,0-2.23.25c-.54.26-.6-.33-.81-.62a.48.48,0,0,1,.14-.78A2.89,2.89,0,0,1,46.21,66Z"/><path class="cls-4" d="M48.34,70.27a3.71,3.71,0,0,0,2-.27,2,2,0,0,1,1.47.07,3.57,3.57,0,0,0,2.39.11,1.17,1.17,0,0,1,1.13.07.42.42,0,0,1,0,.61c-.33.38-.41,1.07-1.1,1a9.28,9.28,0,0,1-1.83-.26,6.09,6.09,0,0,0-4.07.58,1.34,1.34,0,0,1-2-1.14c0-.34.22-.46.49-.6C47.34,70.22,47.83,70.41,48.34,70.27Z"/><path class="cls-4" d="M50.74,74.54c.14,0,.28,0,.42,0a2.37,2.37,0,0,1,1.37.53c.51.6-.27.85-.42,1.27A18,18,0,0,1,51.23,78c-.31.65-.54.47-.82,0a21.24,21.24,0,0,0-1.19-2c-.44-.63-.25-.95.38-1.2A2.5,2.5,0,0,1,50.74,74.54Z"/><path class="cls-2" d="M68.48,48.68c-.17-.22-.37-.41-.32-.74a12.67,12.67,0,0,0,.08-2.61c0-.49.2-.73.69-.71s1.23-.22,1.81.15A42.19,42.19,0,0,1,68.48,48.68Z"/><path class="cls-2" d="M30.5,44.77a2.93,2.93,0,0,1,1.87-.11.49.49,0,0,1,.46.52c0,.9.05,1.79.08,2.69a.48.48,0,0,1-.33.44c-.76-.76-1-1.94-1.91-2.56C30.27,45.49,30.72,45.07,30.5,44.77Z"/><path class="cls-5" d="M20.29,14.76c1,.21,1.12.45.5,1.32-.06.09-.16.18-.09.29a.25.25,0,0,0,.37,0c.21-.14.36-.35.64-.4s.66-.3.63-.66-.37-.4-.66-.53c-.44-.2-.94-.43-.49-1.12.32-.5,0-.9-.48-1.13-.24-.1-.64-.13-.55-.51s.46-.29.73-.29a1.63,1.63,0,0,0,1.19-.53c.16-.15.35-.33.6-.19s.14.35.12.54a1,1,0,0,0,.69,1.25c.45.15.5.45.39.87s-.21.8.21,1.08.79.11,1.12-.22.95-.12.85-.49-.6,0-.93,0-.46-.12-.44-.31c.13-1.06-.82-1.58-1.19-2.39-.18-.41-.12-.64.25-.81.77-.33,1.54-.67,2.32-1,.5-.19.74.18.89.55.94,2.22,1.85,4.45,2.78,6.68a4.72,4.72,0,0,0,.27.61c.62,1.16.52,1.37-.7,1.82-.66.24-.95.07-1.06-.59,0-.24-.09-.64-.36-.57a3.22,3.22,0,0,0-1.23.64c-.28.24,0,.51.2.71.35.35.35.61-.15.81-.73.3-1.44.64-2.17.92-.32.13-.76.32-1-.12s.16-.64.54-.74.51-.22.38-.53-.46-.28-.72-.15a9.34,9.34,0,0,1-.91.41c-.57.2-.25.65-.06.89.62.79-.1.93-.53,1.21s-1,.35-1.32-.29c-1.33-2.69-2.58-5.42-4.09-8-.19-.34,0-.48.21-.59a24.15,24.15,0,0,1,2.25-.92c.64-.19.65.32.64.77,0,.19-.23.37.09.57C20.69,14.06,20.67,14.1,20.29,14.76Zm6.18.62c-.31.07-.61.18-.23.58a1.11,1.11,0,0,1,.28,1c0,.2-.05.41.21.47a.63.63,0,0,0,.7-.15c.35-.52-.09-.95-.22-1.42A.66.66,0,0,0,26.47,15.38Zm-2.8,2.87c-1.09.5-1.43.43-1.71-.43-.08-.22-.06-.48-.4-.33s-.39.37-.2.61a4.39,4.39,0,0,1,.59,1c.07.15.29.3.41.19C22.77,18.9,23.37,18.78,23.67,18.25Z"/><path class="cls-5" d="M71.38,18.16a31.12,31.12,0,0,0,1.27-3.05c.67-1.58,1.33-3.15,1.94-4.75.2-.53.44-.61.94-.4,2.81,1.18,5.62,2.39,8.48,3.45.45.16.58.43.36.91C83.16,17,82,19.69,80.78,22.38a.52.52,0,0,1-.8.31c-2.71-1.28-5.41-2.55-8.19-3.67C71.44,18.89,71.32,18.64,71.38,18.16Zm7.54.43c-.2,0-.43,0-.48.22s.14.34.34.39a1.25,1.25,0,0,1,.85.5c.36.59.6.18.75-.11a20.49,20.49,0,0,0,1.14-2.42c.14-.36.66-.94.12-1.17s-.65.5-.8.91C80.23,18.47,80.05,18.64,78.92,18.59Zm-3.53-4.65c.46.21,1.1.45,1.68.78a.55.55,0,0,1,.17,1,3.08,3.08,0,0,0-.34.85c-.06.15-.17.33,0,.46s.36,0,.51-.13c.47-.29.37-.85.58-1.26.39-.76.25-.93-.51-1.26a7.42,7.42,0,0,1-2.09-.88c-.17-.13-.37-.19-.53,0a.52.52,0,0,0-.12.37C74.78,14.11,75,14,75.39,13.94Zm0,5a7.75,7.75,0,0,1,.9.5.3.3,0,0,0,.5-.06,2,2,0,0,0-.56-2,9.75,9.75,0,0,1-2.48-1.51c-.23.62,0,1,.49,1.11a9.48,9.48,0,0,1,1.22.51c.37.14.71.25.72.69S75.75,18.79,75.34,18.91Zm3.57-5.75a.36.36,0,0,0-.21-.37c-.89-.38-1.79-.75-2.69-1.1a.43.43,0,0,0-.54.29c-.1.24,0,.41.24.52.83.33,1.65.68,2.47,1A.48.48,0,0,0,78.91,13.16Zm.14,4.27c.07,0,.18-.05.21-.11.29-.51.59-1,.84-1.54.1-.21-.09-.36-.29-.44a.37.37,0,0,0-.51.16,11.28,11.28,0,0,0-.6,1.38A.39.39,0,0,0,79.05,17.43Zm-4,1.2c-.53-.63-1.38-.61-1.79-1.2,0,0-.16,0-.2.09a.25.25,0,0,0,0,.37C73.66,18.22,74.13,18.81,75.05,18.63Zm1.28-2.94a.65.65,0,0,0-.72-.66.48.48,0,0,0-.53.52c0,.44.34.62.73.65S76.31,16,76.33,15.69Zm5.87-.39a.41.41,0,0,0,.41-.46c0-.5-.39-.72-.82-.79a.34.34,0,0,0-.4.41C81.45,14.93,81.83,15.14,82.2,15.3Z"/><path class="cls-5" d="M62.85,8.83c1,.25,1.9.43,2.76.67.6.18,1,0,1-.6s.39-.73.92-.56a4.75,4.75,0,0,0,.82.16c.62.07,1,.26.67,1-.2.44.06.7.46.82a10.17,10.17,0,0,0,2,.47c.46,0,.93.13.79.7s.05,1.34-.82,1.34c-.56,0-.72.21-.82.7a13.06,13.06,0,0,1-.53,1.95c-.18.5-.1.82.43,1s.66.44.39.94a2.83,2.83,0,0,0-.19.72c-.08.32-.25.48-.61.39l-8.35-1.91c-.34-.08-.84-.06-.88-.49a2.47,2.47,0,0,1,.39-1.51c.14-.24.45-.17.69-.07.57.24.75,0,.82-.56a10,10,0,0,1,.4-1.8c.23-.67.12-1-.58-1.29-.88-.3-.35-1-.33-1.51A.47.47,0,0,1,62.85,8.83Zm2.26,5.93a.52.52,0,0,0,.38.51,12.65,12.65,0,0,0,1.71.35.43.43,0,0,0,.44-.33,15.93,15.93,0,0,0,.76-2.65c.1-.73-.73-.66-1.18-.75s-1.22-.65-1.53.17A18.91,18.91,0,0,0,65.11,14.76Z"/><path class="cls-5" d="M53.63,8.11l.89.05c.48,0,.84-.1.8-.69,0-.37.17-.64.52-.64a11.41,11.41,0,0,1,1.75.1c.4.05.46.34.37.7-.14.6.18.83.72.85s1.18,0,1.77,0,.85.24.79.81c-.15,1.53-.32,3.06-.47,4.58,0,.41-.27.51-.63.5-.58,0-1.18,0-1.76-.06s-.91.15-.83.79a2.92,2.92,0,0,1,0,.59c0,.4-.28.91-.61.65-.66-.49-1.91.56-2.11-.86a2,2,0,0,1,0-.41c.08-.7-.06-1.15-.94-1.06A10.41,10.41,0,0,1,52.17,14c-.53,0-.78-.28-.74-.88a38.57,38.57,0,0,0,.21-4c0-1,.12-1.12,1.11-1Zm1.5,2.72c.06-.64-.36-.81-.84-.81s-.61.46-.61.9.11.91.72.9S55.1,11.3,55.13,10.83Zm3.89.29c0-.47-.07-.88-.64-.86s-.7.39-.7.87.13,1,.74,1S59,11.55,59,11.12Z"/><path class="cls-5" d="M50.16,12.41c.05.48-.14.79-.76.75a2.44,2.44,0,0,0-.65.1c-.13,0-.29.08-.31.25s.15.27.29.35c.33.17.88.1.9.62s-.43.95-.75,1.37-.56.18-.83,0c-.61-.4-1.23-.78-1.81-1.22s-.8-.4-1,.24a1.85,1.85,0,0,1-.23.44c-.8,1.28-1.5,1.37-2.6.34-.35-.32-.21-.57,0-.86s.44-.45.25-.74-.55-.14-.84-.06c-1.09.27-1.56-.12-1.47-1.22,0-.19.07-.37.24-.41.81-.2.7-.72.48-1.29a.9.9,0,0,1,0-.16C40.86,9.05,40.86,9,42.7,8.72c.69-.12,1.13-.32.87-1.14-.11-.33.09-.54.42-.6a8.71,8.71,0,0,1,1.25-.15c.42,0,.53.33.55.7,0,.55.27.73.88.64C48.79,7.85,48.79,7.88,49,10c.06.55.09,1.09.79,1.32C50.21,11.45,50.16,11.94,50.16,12.41ZM47,11c-.08-.28.07-.83-.54-.87-.36,0-.43.31-.39.6s-.06.92.56,1C47,11.67,47.06,11.35,47,11Zm-3.09.2c-.07-.28,0-.67-.46-.66s-.42.32-.41.61,0,.79.38.82S43.87,11.49,43.93,11.15Z"/><path class="cls-5" d="M31.38,13.2c-.3.07-.47.09-.63.14-1.16.31-1.48.1-1.69-1.07-.07-.34.11-.46.37-.54.51-.16,1-.37,1.53-.48.76-.15,1-.5.67-1.23a3,3,0,0,1-.19-.73.55.55,0,0,1,.44-.7c.41-.09.81-.23,1.21-.33.59-.15.74.37.89.79.45,1.31.48,1.33,1.84.86.27-.1.54-.15.81-.23.94-.26,1.43,0,1.64,1a.6.6,0,0,1-.48.77c-.51.15-1,.25-1.55.37-.21,0-.51,0-.57.27s.16.47.4.59A27.11,27.11,0,0,0,38.76,14c.36.13.87.24.87.69a2.79,2.79,0,0,1-.58,1.63c-.19.25-.54.11-.78,0a20.82,20.82,0,0,1-3.59-1.81c-.56-.42-.76.09-.9.47a12.68,12.68,0,0,1-1.08,2.37c-.41.67-.74.65-1.84,0-.56-.33-.36-.68-.15-1.13.38-.81.68-1.65,1-2.49C31.86,13.32,31.63,13.19,31.38,13.2Z"/><path class="cls-2" d="M50.57,28.34c2,0,4,0,6,0,.67,0,1,.21.91.86v.08c.06,1.52.06,1.53,1.57,1.59.6,0,.66.37.65.85,0,3.11,0,6.23,0,9.35,0,.25,0,.5,0,.76s.09.7-.36.82-.69-.12-.89-.46a12.19,12.19,0,0,0-1.63-2.35,9.42,9.42,0,0,0-3.75-2.32c-.81-.28-.87-.77-.77-1.43s.72-.48,1.14-.49c.79,0,1.57,0,2.36,0,.21,0,.49.1.6-.16s-.13-.41-.3-.54l-5-3.74a.73.73,0,0,0-1.05,0c-1.6,1.23-3.22,2.43-4.83,3.65-.2.15-.49.29-.39.58s.43.18.66.18l2.7,0c.48,0,.75.19.75.68s.06.9-.57,1a8.94,8.94,0,0,0-6.06,4.8c-.18.33-.4.64-.84.53s-.39-.51-.39-.89c0-3.28,0-6.57,0-9.85,0-.74.16-1,.91-1,1.69,0,1.71,0,1.71-1.76,0-.62.17-.91.82-.79a2.89,2.89,0,0,0,.59,0h5.47Z"/><path class="cls-2" d="M62.94,41.94c0-2.44.05-4.88,0-7.33,0-1,.52-1,1.21-1s.85.38.85,1Q65,42,65,49.49c0,.56-.11.8-.78.68C63,50,63,50,63,48.68V41.94Z"/><path class="cls-2" d="M36.13,41.93c0-2.47,0-5,0-7.42,0-.65.2-.9.86-.93s.85.31.85.92c0,5,0,10,0,14.92,0,1-.75.78-1.25.85s-.5-.47-.5-.84c0-2.5,0-5,0-7.5Z"/><path class="cls-2" d="M57.84,47.87H56.67a.65.65,0,0,1-.72-.74c0-.5.24-.71.72-.69a13.17,13.17,0,0,0,2.35,0c.56-.07.65.33.67.75s-.13.77-.67.74-.78,0-1.18,0Z"/><path class="cls-2" d="M50.27,46.49c.4,0,.74,0,1.08-.06.52,0,.79.17.8.71s-.26.75-.78.74c-.75,0-1.51,0-2.27,0-.58,0-.69-.34-.68-.82s.26-.7.74-.65S50,46.47,50.27,46.49Z"/><path class="cls-2" d="M42.8,47.87h-1c-.53,0-.76-.25-.74-.77s.29-.67.76-.66c.64,0,1.28,0,1.93,0s.84.19.84.78-.41.66-.86.67H42.8Z"/><path class="cls-2" d="M26.47,15.38a.66.66,0,0,1,.74.49c.13.47.57.9.22,1.42a.63.63,0,0,1-.7.15c-.26-.06-.24-.27-.21-.47a1.11,1.11,0,0,0-.28-1C25.86,15.56,26.16,15.45,26.47,15.38Z"/><path class="cls-2" d="M23.67,18.25c-.3.53-.9.65-1.31,1-.12.11-.34,0-.41-.19a4.39,4.39,0,0,0-.59-1c-.19-.24-.09-.49.2-.61s.32.11.4.33C22.24,18.68,22.58,18.75,23.67,18.25Z"/><path class="cls-2" d="M78.92,18.59c1.13.05,1.31-.12,1.92-1.68.15-.41.16-1.18.8-.91s0,.81-.12,1.17a20.49,20.49,0,0,1-1.14,2.42c-.15.29-.39.7-.75.11a1.25,1.25,0,0,0-.85-.5c-.2-.05-.4-.16-.34-.39S78.72,18.58,78.92,18.59Z"/><path class="cls-2" d="M75.39,13.94c-.38.07-.61.17-.66-.12a.52.52,0,0,1,.12-.37c.16-.18.36-.12.53,0a7.42,7.42,0,0,0,2.09.88c.76.33.9.5.51,1.26-.21.41-.11,1-.58,1.26-.15.1-.31.29-.51.13s0-.31,0-.46a3.08,3.08,0,0,1,.34-.85.55.55,0,0,0-.17-1C76.49,14.39,75.85,14.15,75.39,13.94Z"/><path class="cls-2" d="M75.34,18.91c.41-.12.81-.23.79-.73s-.35-.55-.72-.69A9.48,9.48,0,0,0,74.19,17c-.51-.15-.72-.49-.49-1.11a9.75,9.75,0,0,0,2.48,1.51,2,2,0,0,1,.56,2,.3.3,0,0,1-.5.06A7.75,7.75,0,0,0,75.34,18.91Z"/><path class="cls-2" d="M78.91,13.16a.48.48,0,0,1-.73.36c-.82-.34-1.64-.69-2.47-1-.26-.11-.34-.28-.24-.52a.43.43,0,0,1,.54-.29c.9.35,1.8.72,2.69,1.1A.36.36,0,0,1,78.91,13.16Z"/><path class="cls-2" d="M79.05,17.43a.39.39,0,0,1-.35-.55,11.28,11.28,0,0,1,.6-1.38.37.37,0,0,1,.51-.16c.2.08.39.23.29.44-.25.53-.55,1-.84,1.54C79.23,17.38,79.12,17.4,79.05,17.43Z"/><path class="cls-2" d="M75.05,18.63c-.92.18-1.39-.41-2-.74a.25.25,0,0,1,0-.37c0-.06.19-.11.2-.09C73.67,18,74.52,18,75.05,18.63Z"/><path class="cls-2" d="M76.33,15.69c0,.32-.18.53-.52.51s-.71-.21-.73-.65a.48.48,0,0,1,.53-.52A.65.65,0,0,1,76.33,15.69Z"/><path class="cls-2" d="M82.2,15.3c-.37-.16-.75-.37-.81-.84a.34.34,0,0,1,.4-.41c.43.07.8.29.82.79A.41.41,0,0,1,82.2,15.3Z"/><path class="cls-2" d="M65.11,14.76a18.91,18.91,0,0,1,.58-2.7c.31-.82,1-.26,1.53-.17s1.28,0,1.18.75a15.93,15.93,0,0,1-.76,2.65.43.43,0,0,1-.44.33,12.65,12.65,0,0,1-1.71-.35A.52.52,0,0,1,65.11,14.76Z"/><path class="cls-2" d="M55.13,10.83c0,.47-.05,1-.73,1s-.72-.39-.72-.9,0-.9.61-.9S55.19,10.19,55.13,10.83Z"/><path class="cls-2" d="M59,11.12c-.06.43.06,1-.6,1s-.75-.48-.74-1,.17-.86.7-.87S59.05,10.65,59,11.12Z"/><path class="cls-2" d="M47,11c0,.4,0,.72-.37.69-.62,0-.51-.56-.56-1s0-.63.39-.6C47.09,10.12,46.94,10.67,47,11Z"/><path class="cls-2" d="M43.93,11.15c-.06.34-.09.79-.49.77s-.38-.49-.38-.82,0-.61.41-.61S43.86,10.87,43.93,11.15Z"/><path d="M143.28,15.88V47.45H140V45.87H116.43v1.58h-3.17V15.88Zm-3.31,27V18.91H116.43V42.84ZM137.3,27.47A27,27,0,0,1,133.45,36c.61,1.55,1.41,2.52,2.34,2.7.43.15.76-1.33,1-3.56a11.72,11.72,0,0,0,2.13,1.58c-.51,4.11-2,5.51-4.11,4.68a5.55,5.55,0,0,1-3.27-3,21.86,21.86,0,0,1-4.29,3.6A16.13,16.13,0,0,0,125.35,40,20.53,20.53,0,0,0,128.12,38c-3.52.58-7.16,1.26-10,1.76l-.36-2.52c2.63-.36,6.55-1,10.44-1.58l.07,2.23a16,16,0,0,0,2.16-2.27,50.74,50.74,0,0,1-1.76-10H118.08V23.12h10.33l-.21-3.46H131c0,1.15.11,2.34.18,3.46h5.07a13.15,13.15,0,0,0-3.56-2.49l1.55-1.54a15.09,15.09,0,0,1,3.67,2.37l-1.58,1.66h2.19V25.6h-7.13a67.22,67.22,0,0,0,1,7.06,23.81,23.81,0,0,0,2.23-5.73Zm-10.15,0v6.91h-8V27.51Zm-2.34,1.91h-3.38v3.09h3.38Z"/><path d="M180.32,42.52V45.9H148.25V42.52h17.42a104.82,104.82,0,0,0,5-16.67l3.78.72a153.35,153.35,0,0,1-5.18,16Zm-1.47-18.25h-29V20.89h29Zm-21.1,17a117,117,0,0,0-3.24-14.65l3.39-.83a123.65,123.65,0,0,1,3.42,14.58Zm5.37-20.52a45.89,45.89,0,0,0-1.73-5.87l3.31-.82c.68,1.8,1.51,4.17,1.91,5.68Z"/><path d="M214.77,20.6V37.8h-3.49V35.86h-9.36V47.31h-3.49V35.86h-9.32V38h-3.35V20.6h12.67V14.33h3.49V20.6Zm-16.34,12V23.87h-9.32v8.71Zm12.85,0V23.87h-9.36v8.71Z"/><path d="M252.29,30.89v3.28H237.35c-1.66,5.36-5.73,10.19-15.37,13.17a13.68,13.68,0,0,0-1.84-3c8-2.37,11.77-6.08,13.46-10.22H220.36V30.89h3.89V19.12H235V14.33h3.39v4.79h10.51V30.89Zm-17.75,0a27.12,27.12,0,0,0,.43-5.07V22.4h-7.38v8.49Zm5,4.32A142.67,142.67,0,0,1,252,44.53l-2.41,2.74a119.19,119.19,0,0,0-12.34-9.72Zm-1.15-9.36a33.78,33.78,0,0,1-.33,5h7.31V22.4h-7Z"/><path d="M274.93,27.73c2.45,7.48,7,13.57,13.79,16.41a13.16,13.16,0,0,0-2.49,3.13c-6.73-3.13-11.08-9-13.89-16.59a24.91,24.91,0,0,1-13.89,16.59,11.62,11.62,0,0,0-2.56-2.81c8.57-3.74,12.06-10.22,13.5-16.73H256.61V24.27H270a89.33,89.33,0,0,0,.43-9.94h3.64a89.9,89.9,0,0,1-.51,9.94h14.51v3.46Z"/><path d="M324.29,40.54h-14V44c0,1.59-.36,2.38-1.62,2.81s-3.13.47-5.94.47a11.54,11.54,0,0,0-1.08-2.84c2,.07,4.07.07,4.61.07s.76-.14.76-.61V40.54H292.25V37.8H307V36.51a34,34,0,0,0,4.86-2.45H299V31.61h16.31l.72-.18,1.9,1.73a36.83,36.83,0,0,1-7.63,4.36v.28h14ZM296.14,34H293V27.08h2.74l-.65-10.66a69.1,69.1,0,0,0,7.05-1.83l1.44,2a32.7,32.7,0,0,1-5.29,1.4l.11,1.44h4.93v2.16h-4.82l.11,1.66h4.85v2.12a21,21,0,0,0,3-1.69,26.17,26.17,0,0,0-2.34-1.3l1.62-1.4c.79.39,1.69.86,2.52,1.37a10.53,10.53,0,0,0,1.62-1.77l2.27.72a18.32,18.32,0,0,1-2,2.2,18.43,18.43,0,0,1,2.38,1.83l-1.69,1.55A17.29,17.29,0,0,0,308.45,25a29.5,29.5,0,0,1-3.24,2.13h12.56c0-.54.11-1.08.18-1.66h-4.79V23.23h4.93l.15-1.66h-4.9V19.41h5l.07-1.62h-5.29v-2.2h8.57c-.18,3.64-.5,8.25-.79,11.49h2.73V34h-3.31V29.6H296.14Zm2.7-6.87H305a10.63,10.63,0,0,0-1.69-1.66h-4.54Zm11.91-6.63a14,14,0,0,0-2.23-1.69,20.61,20.61,0,0,1-3.1,2,16.47,16.47,0,0,0-1.83-1.55,15.55,15.55,0,0,0,3-1.65,18.9,18.9,0,0,0-2.27-1.19l1.62-1.4c.76.36,1.62.79,2.41,1.26a10.14,10.14,0,0,0,1.52-1.59l2.26.61a17.29,17.29,0,0,1-1.87,2.13,17.83,17.83,0,0,1,2.2,1.58Z"/><path d="M359.39,15.63V47.31h-3.24V46H332.39v1.34h-3.13V15.63ZM356.15,43.2V18.44H332.39V43.2Zm-1.37-16.3v1.94H333.83V26.9h8.89V25.49H337.1V19.88h14.26v5.61h-5.8V26.9ZM336,30.17h16.6V41.58H336Zm2.59,9.43h11.27V32.12H338.54Zm1.3-15.94h8.67V21.71h-8.67Zm.61,9.75h7.45v4.86h-7.45Zm1.95,3.28h3.49V35H342.4Z"/><path d="M396.21,32.26v2.41H364.32V32.26h14.11V30.53H366.8V28.37h11.63V26.72H367.67V24.59h10.76V22.83H364.36V20.42h14.07V18.69H368.1V16.64h10.33V14.19h3.39v2.45h10.11v3.78h4.25v2.41h-4.25v3.89H381.82v1.65h11.87v2.16H381.82v1.73Zm-27.35,3.89h23.25V47.38h-3.38V46.33h-16.6v1.08h-3.27Zm3.27,2.16v1.8h16.6v-1.8Zm16.6,5.79V42.19h-16.6V44.1Zm-6.91-23.68h6.8V18.69h-6.8Zm0,4.17h6.8V22.83h-6.8Z"/><path d="M429.41,24.48V21.07h-13v2.84h12.81V33.2H418.71v2.66h12.17V47.13h-2.95V45.87h-9.22v1.4h-2.95V24.48h-2.08V19.05l-1.41,2.48c-1.11-.86-3.24-2.12-5.07-3.24a23,23,0,0,1-2.38,2.7h5.87V23.3h-6.16v-2a27.17,27.17,0,0,1-3.67,3,15.39,15.39,0,0,0-1.37-3A21.84,21.84,0,0,0,406.8,14l2.63.94a7.23,7.23,0,0,1-.65,1.15c1.73,1,3.78,2.13,4.93,2.88V18.4h8.21a34.16,34.16,0,0,0-1.51-3.17L423.32,14a39.75,39.75,0,0,1,1.95,3.82l-1.16.57h8.14v6.08ZM410,38a78.57,78.57,0,0,1,3.57,7.09l-2.41,1.19c-.29-.75-.72-1.65-1.16-2.66-6.73,2.66-7.81,3.17-8.49,3.67a10.65,10.65,0,0,0-1.08-2.81,2.07,2.07,0,0,0,1.33-2.09V25.1h10.58V37.44h-7.7v5.37l4.25-1.51c-.43-.83-.79-1.62-1.19-2.34Zm-5.36-10.4V30h4.75V27.58ZM409.39,35V32.4h-4.75V35Zm9.32-8.39v4h7.71v-4Zm0,12.06V43h9.22V38.63Z"/><path d="M112.16,53.53h2.32L119.24,62l1.5,3h.1c-.12-1.48-.29-3.21-.29-4.78v-6.7h2.14V67.9h-2.32l-4.76-8.46-1.5-3H114c.12,1.48.3,3.14.3,4.7V67.9h-2.15Z"/><path d="M125.66,65.05c0-2.3,2-3.49,6.41-4,0-1.24-.47-2.34-2-2.34a5.88,5.88,0,0,0-3.1,1.1l-.84-1.53a8.28,8.28,0,0,1,4.33-1.4c2.68,0,3.9,1.7,3.9,4.54V67.9h-1.83l-.17-1.23h-.08a5.34,5.34,0,0,1-3.42,1.48A3,3,0,0,1,125.66,65.05Zm6.41.08V62.5c-3.18.37-4.25,1.19-4.25,2.4,0,1,.72,1.48,1.68,1.48A3.79,3.79,0,0,0,132.07,65.13Z"/><path d="M137.51,64.39V59H136V57.29l1.68-.12.25-3h1.87v3h2.79V59h-2.79v5.44c0,1.29.45,2,1.56,2a3.33,3.33,0,0,0,1.15-.25l.41,1.65a6.65,6.65,0,0,1-2.1.39C138.35,68.15,137.51,66.65,137.51,64.39Z"/><path d="M144.61,53.82A1.28,1.28,0,0,1,146,52.49a1.34,1.34,0,1,1,0,2.67A1.28,1.28,0,0,1,144.61,53.82Zm.27,3.35h2.24V67.9h-2.24Z"/><path d="M149.72,62.54c0-3.57,2.4-5.64,5.05-5.64s5,2.07,5,5.64-2.4,5.61-5,5.61S149.72,66.11,149.72,62.54Zm7.8,0c0-2.27-1.05-3.79-2.75-3.79S152,60.27,152,62.54s1.05,3.78,2.73,3.78S157.52,64.82,157.52,62.54Z"/><path d="M162.45,57.17h1.83l.18,1.49h.06a5.1,5.1,0,0,1,3.55-1.76c2.28,0,3.29,1.52,3.29,4.25V67.9h-2.24V61.42c0-1.85-.55-2.59-1.81-2.59a3.62,3.62,0,0,0-2.62,1.46V67.9h-2.24Z"/><path d="M174,65.05c0-2.3,1.95-3.49,6.41-4,0-1.24-.47-2.34-2-2.34a5.88,5.88,0,0,0-3.1,1.1l-.84-1.53a8.28,8.28,0,0,1,4.33-1.4c2.68,0,3.9,1.7,3.9,4.54V67.9h-1.83l-.17-1.23h-.08a5.34,5.34,0,0,1-3.42,1.48A3,3,0,0,1,174,65.05Zm6.41.08V62.5c-3.18.37-4.25,1.19-4.25,2.4,0,1,.72,1.48,1.68,1.48A3.79,3.79,0,0,0,180.41,65.13Z"/><path d="M185.83,65.38v-13h2.24V65.5c0,.61.26.82.53.82a1.49,1.49,0,0,0,.37,0l.29,1.7a3.71,3.71,0,0,1-1.21.17C186.44,68.15,185.83,67.12,185.83,65.38Z"/><path d="M195.44,60.76c0-4.68,2.85-7.49,6.48-7.49A5.54,5.54,0,0,1,206,55.09l-1.23,1.44A3.82,3.82,0,0,0,202,55.24c-2.48,0-4.19,2.07-4.19,5.44s1.59,5.5,4.13,5.5a4.14,4.14,0,0,0,3.18-1.52l1.21,1.43a5.69,5.69,0,0,1-4.47,2.06C198.21,68.15,195.44,65.46,195.44,60.76Z"/><path d="M207.87,62.54c0-3.48,2.39-5.64,4.89-5.64,2.85,0,4.39,2.05,4.39,5.07a5.63,5.63,0,0,1-.12,1.15h-7a3.24,3.24,0,0,0,3.31,3.28,4.54,4.54,0,0,0,2.56-.8l.78,1.42a6.51,6.51,0,0,1-3.63,1.13C210.19,68.15,207.87,66.09,207.87,62.54Zm7.33-1c0-1.83-.84-2.9-2.4-2.9-1.35,0-2.54,1-2.75,2.9Z"/><path d="M219.64,57.17h1.84l.17,1.49h.06a5.12,5.12,0,0,1,3.55-1.76c2.28,0,3.3,1.52,3.3,4.25V67.9h-2.25V61.42c0-1.85-.54-2.59-1.81-2.59a3.6,3.6,0,0,0-2.61,1.46V67.9h-2.25Z"/><path d="M232.16,64.39V59H230.6V57.29l1.68-.12.25-3h1.88v3h2.78V59h-2.78v5.44c0,1.29.44,2,1.56,2a3.38,3.38,0,0,0,1.15-.25l.41,1.65a6.77,6.77,0,0,1-2.11.39C233,68.15,232.16,66.65,232.16,64.39Z"/><path d="M239.53,57.17h1.84l.17,1.93h.06a3.71,3.71,0,0,1,3-2.2,2.74,2.74,0,0,1,1.21.23l-.41,1.95a3.33,3.33,0,0,0-1.07-.17c-.88,0-1.93.6-2.59,2.3V67.9h-2.25Z"/><path d="M246.34,65.05c0-2.3,1.95-3.49,6.41-4,0-1.24-.46-2.34-2-2.34a5.85,5.85,0,0,0-3.1,1.1l-.84-1.53a8.22,8.22,0,0,1,4.33-1.4c2.67,0,3.9,1.7,3.9,4.54V67.9h-1.84L253,66.67h-.08a5.3,5.3,0,0,1-3.41,1.48A3,3,0,0,1,246.34,65.05Zm6.41.08V62.5c-3.17.37-4.25,1.19-4.25,2.4,0,1,.73,1.48,1.68,1.48A3.75,3.75,0,0,0,252.75,65.13Z"/><path d="M258.17,65.38v-13h2.25V65.5c0,.61.25.82.52.82a1.49,1.49,0,0,0,.37,0l.3,1.7a3.81,3.81,0,0,1-1.21.17C258.78,68.15,258.17,67.12,258.17,65.38Z"/><path d="M268.49,61.74V53.53h2.26v8.36c0,3.24,1.29,4.29,3.08,4.29S277,65.13,277,61.89V53.53h2.19v8.21c0,4.68-2.15,6.41-5.33,6.41S268.49,66.42,268.49,61.74Z"/><path d="M282.67,57.17h1.83l.17,1.49h.06a5.12,5.12,0,0,1,3.55-1.76c2.28,0,3.3,1.52,3.3,4.25V67.9h-2.24V61.42c0-1.85-.55-2.59-1.82-2.59a3.6,3.6,0,0,0-2.61,1.46V67.9h-2.24Z"/><path d="M294.56,53.82A1.29,1.29,0,0,1,296,52.49a1.34,1.34,0,1,1,0,2.67A1.29,1.29,0,0,1,294.56,53.82Zm.27,3.35h2.25V67.9h-2.25Z"/><path d="M299,57.17h2.3L303.12,63l.94,3.19h.08c.31-1,.64-2.14.93-3.19l1.84-5.78h2.18L305.38,67.9h-2.59Z"/><path d="M310.18,62.54c0-3.48,2.4-5.64,4.9-5.64,2.84,0,4.38,2.05,4.38,5.07a5.73,5.73,0,0,1-.11,1.15h-7a3.25,3.25,0,0,0,3.32,3.28,4.51,4.51,0,0,0,2.55-.8L319,67a6.51,6.51,0,0,1-3.62,1.13C312.5,68.15,310.18,66.09,310.18,62.54Zm7.33-1c0-1.83-.84-2.9-2.39-2.9-1.35,0-2.54,1-2.75,2.9Z"/><path d="M322,57.17h1.83L324,59.1H324a3.71,3.71,0,0,1,3-2.2,2.77,2.77,0,0,1,1.21.23l-.41,1.95a3.38,3.38,0,0,0-1.07-.17c-.88,0-1.94.6-2.6,2.3V67.9H322Z"/><path d="M328.69,66.67l1.05-1.44a4.85,4.85,0,0,0,3,1.23c1.29,0,1.89-.63,1.89-1.45,0-1-1.21-1.4-2.36-1.85-1.44-.55-3-1.31-3-3.12s1.44-3.14,3.82-3.14a5.57,5.57,0,0,1,3.47,1.27l-1.05,1.38a4,4,0,0,0-2.38-.93c-1.19,0-1.73.58-1.73,1.32,0,.92,1.05,1.27,2.22,1.7,1.5.56,3.16,1.23,3.16,3.26,0,1.79-1.43,3.25-4.08,3.25A6.61,6.61,0,0,1,328.69,66.67Z"/><path d="M338.9,53.82a1.4,1.4,0,1,1,1.39,1.34A1.29,1.29,0,0,1,338.9,53.82Zm.28,3.35h2.24V67.9h-2.24Z"/><path d="M345.12,64.39V59h-1.56V57.29l1.68-.12.25-3h1.88v3h2.79V59h-2.79v5.44c0,1.29.44,2,1.56,2a3.38,3.38,0,0,0,1.15-.25l.41,1.65a6.77,6.77,0,0,1-2.11.39C346,68.15,345.12,66.65,345.12,64.39Z"/><path d="M351.64,72.17l.43-1.76a2.75,2.75,0,0,0,.78.16c1.17,0,1.85-.86,2.24-2l.21-.74-4.25-10.65h2.3l2,5.52c.31,1,.65,2,1,3h.1c.27-1,.56-2,.83-3L359,57.17h2.18l-3.94,11.37c-.83,2.3-2,3.84-4.23,3.84A3.73,3.73,0,0,1,351.64,72.17Z"/><path d="M367.69,53.53H370V66H376V67.9h-8.34Z"/><path d="M378.1,53.82a1.28,1.28,0,0,1,1.38-1.33,1.34,1.34,0,1,1,0,2.67A1.28,1.28,0,0,1,378.1,53.82Zm.27,3.35h2.24V67.9h-2.24Z"/><path d="M386,66.79h-.06l-.22,1.11H384V52.36h2.24v4.11l-.08,1.83a5.18,5.18,0,0,1,3.2-1.4c2.71,0,4.25,2.16,4.25,5.46,0,3.69-2.2,5.79-4.62,5.79A4.5,4.5,0,0,1,386,66.79Zm5.26-4.39c0-2.24-.72-3.63-2.51-3.63a3.66,3.66,0,0,0-2.54,1.31v5.24a3.53,3.53,0,0,0,2.32,1C390.09,66.3,391.26,64.92,391.26,62.4Z"/><path d="M396.23,57.17h1.84l.17,1.93h.06a3.71,3.71,0,0,1,3-2.2,2.74,2.74,0,0,1,1.21.23l-.41,1.95a3.33,3.33,0,0,0-1.07-.17c-.88,0-1.93.6-2.59,2.3V67.9h-2.25Z"/><path d="M403,65.05c0-2.3,1.95-3.49,6.41-4,0-1.24-.46-2.34-2-2.34a5.85,5.85,0,0,0-3.1,1.1l-.84-1.53a8.22,8.22,0,0,1,4.33-1.4c2.67,0,3.9,1.7,3.9,4.54V67.9h-1.84l-.17-1.23h-.08a5.34,5.34,0,0,1-3.41,1.48A3,3,0,0,1,403,65.05Zm6.41.08V62.5c-3.17.37-4.25,1.19-4.25,2.4,0,1,.72,1.48,1.68,1.48A3.75,3.75,0,0,0,409.45,65.13Z"/><path d="M414.88,57.17h1.83l.17,1.93h.06a3.71,3.71,0,0,1,3-2.2,2.74,2.74,0,0,1,1.21.23l-.41,1.95a3.33,3.33,0,0,0-1.07-.17c-.88,0-1.93.6-2.59,2.3V67.9h-2.24Z"/><path d="M422.42,72.17l.43-1.76a2.91,2.91,0,0,0,.78.16c1.17,0,1.85-.86,2.24-2l.22-.74-4.25-10.65h2.3l2,5.52c.31,1,.64,2,1,3h.1c.27-1,.56-2,.84-3l1.71-5.52h2.19L428,68.54c-.84,2.3-2,3.84-4.23,3.84A3.75,3.75,0,0,1,422.42,72.17Z"/></svg>