<svg id="圖層_1" data-name="圖層 1" xmlns="http://www.w3.org/2000/svg" viewBox="0 0 455 69.33"><defs><style>.cls-1{fill:#032692;}</style></defs><path class="cls-1" d="M131.65,22.18a50.48,50.48,0,0,0-2.91-5.09,2.74,2.74,0,0,1-.33-3c1.34-3.55,2.58-7.14,3.9-10.81-4.53-2.78-9.19-.85-13.69-1.58v41h3.62V5.89h5.14c-1,3.11-2,6-2.73,9a4.37,4.37,0,0,0,.42,2.55c.78,1.8,2,3.45,2.53,5.32,1.15,4.3.13,5.67-3.78,5.83-.09,0-.17.15-.3.26l.87,3.2c2.69.42,6.11-1.6,7.62,2.64a45.43,45.43,0,0,0,4.29-4.14c1.24-1.56,2.61-1.39,4.37-1.06a29.86,29.86,0,0,1-9.48,9.72l2.31,2.65A32,32,0,0,0,143.66,31c1-1.88,2.31-2,4.24-1.52a25.6,25.6,0,0,1-7.76,10.82l2.66,2.33a29.16,29.16,0,0,0,8.41-11.94c.61-1.51,1.42-1.71,2.9-1.16-.18,1.83-.35,3.6-.51,5.37-.39,4.38-.45,4.44-4.74,4.51a3.3,3.3,0,0,0-.64.12c.29,1.06.56,2.09.86,3.21h3.69c2.08,0,3.59-1.08,3.91-3,.73-4.5,1.18-9,1.79-13.93H140.11c1-2.81,1-2.82,3.59-2.82h13.86c.68,0,1.36-.08,2-.12V19.57H132C131.85,20.55,131.76,21.33,131.65,22.18Zm-.6,8.31.83-7.43h5.4A20.5,20.5,0,0,1,131.05,30.49Z"/><path class="cls-1" d="M38.91,42.92V2.15H0V42.84c3.51.51,3.59.47,4.19-1.87.56,0,1-.06,1.44-.06,9,0,18,0,27,0,1.54,0,2.48.3,2.38,2.05ZM32.7,37.16c-8.92-.08-17.83,0-26.75,0H4.06V5.88H34.73c0,.75.09,1.43.1,2.11,0,9,0,18,0,27C34.88,36.72,34.39,37.18,32.7,37.16Z"/><path class="cls-1" d="M311.93,11.43c-1.63-.06-2.25.33-2.23,2.1.11,6.58,0,13.16.05,19.74,0,.68.09,1.35.13,2h4v-7.2c1.86,0,3.47.08,5.06,0,1.36-.09,1.82.4,1.76,1.74-.09,1.82,0,3.64,0,5.42h3.91v-7h6.87v4h-4.59c1.06,4,.63,3.42,4.1,3.34.45,0,.9-.05,1.34-.1,2.35-.27,3.3-1.28,3.3-3.6q0-9.41,0-18.79a14.69,14.69,0,0,0-.16-1.51c-2.91-.29-5.95.64-8.37-1.67,2.81-2,5.63-4.07,8.86-6.4-1.43-.83-2.43-1.89-3.44-1.9-6.79-.09-13.58,0-20.37.11-.68,0-1.36.06-2,.1V5h17.25c-2.19,2.06-4.29,4.12-7.37,2-.25-.18-.63-.18-.9-.34-2.1-1.3-3.37-.06-4.7,1.45L320.81,11l-.12.49C317.77,11.46,314.84,11.54,311.93,11.43Zm12.79,3.41h6.7v3.43h-3.95C324.21,18.27,324.21,18.27,324.72,14.84Zm.94,6.37h5.79v3.63c-2,0-4,.1-5.94-.08-.4,0-.86-1.14-1-1.8S324.34,21.2,325.66,21.21Zm-11.73-6.43h6.74c0,.72,0,1.38,0,2,.07,1.05-.35,1.49-1.44,1.45-1.71-.06-3.43,0-5.31,0Zm6.68,9.29a1.25,1.25,0,0,1-.89.73c-1.89.07-3.79,0-5.78,0-.07-.7-.1-1.19-.16-1.68-.18-1.43.28-2.17,1.89-2a25,25,0,0,0,2.87,0C320.53,21.22,321.25,22.17,320.61,24.07Z"/><path class="cls-1" d="M379.31,17.23H396V12.87H377.47V.08H373.1c0,1.48,0,2.82,0,4.16s-.06,2.81-.18,4.21c-.39,4.45-.4,4.45-4.84,4.45H355.17v4.38h16.56a31.34,31.34,0,0,1-6,13.24,30.87,30.87,0,0,1-11.44,8.62c.63.66,1.17,1.2,1.68,1.76s1,1.16,1.5,1.79c9.21-4.28,15-11.39,18.12-20.93,3.8,9,8.93,16.67,18,20.9,1.08-1.37,2.08-2.64,3.11-3.93C386.14,34.16,380,22.72,379.31,17.23Z"/><path class="cls-1" d="M215.68,1.79c-5.52.1-11,.09-16.55,0-1.46,0-1.89.42-1.87,1.84.07,5.37.06,10.74,0,16.11,0,7.82-1.76,15-8.19,20.22-.08.06-.07.22-.11.37L191.87,43a4.15,4.15,0,0,0,.44-.2l.74-.62c3.95-3.39,6.07-7.82,7.39-12.73.14-.52.77-1.27,1.19-1.28,3.83-.1,7.66-.06,11.7-.06,0,3.24.07,6.29-.07,9.34,0,.42-1,1.11-1.51,1.15-1.88.14-3.79,0-5.72,0,1.16,4.15,1.16,4.15,5.16,4.07.38,0,.77,0,1.15-.05,4.21-.44,5.24-1.5,5.25-5.72,0-11.06,0-22.12,0-33.17C217.63,2.31,217.25,1.76,215.68,1.79Zm-14.1,4.14H213.2v6.89H201.58ZM213.23,24H201.52V17h11.71Z"/><path class="cls-1" d="M418.81,22c-.21-1.79.36-2.43,2.29-2.41,9,.1,18.09,0,27.14,0h2.4v5.58H455V20.49c0-3.6,0-3.6-3.5-4.2.3-4.83.6-9.69.9-14.63h-11V4.32H448c.28,2.12.28,2.13-1.55,2.15-1.65,0-3.3,0-4.95,0V9.35h6.36c0,.8-.09,1.39-.14,2.15h-6.33v2.82h5.91c.4,1.83-.32,2.32-1.81,2.25-2-.09-4-.05-6-.06h-8.36c3.93-2.94,3.93-2.94,6.9-.82l2-1.81-2.46-2.14c.84-1,1.59-1.88,2.38-2.83-1.66-.72-3-1.16-4.12.48a1.82,1.82,0,0,1-1.75.17c-1.5-1-2.66-1-3.68.72L432.8,12l-4,2.27c-.15-1.13-.25-1.86-.39-2.84h-6.14V9.22h6V6.48h-6.16c-.61-1.27-.16-1.73.93-2C425,3.94,426.77,3.3,429,2.58c-1.38-.93-1.49-2.7-3.36-2-2.51,1-4.93,2.45-8,1.43.31,4.93.6,9.56.9,14.36l-3.59.3v8.55h3.9A28.53,28.53,0,0,0,418.81,22ZM424,14.24c2.39.18,5.1-.81,6.85,2.18h-8.3C422,14.83,422.38,14.12,424,14.24Z"/><path class="cls-1" d="M193.19,30.44V2.71H178v32c.88,0,1.64,0,2.4,0,.37,0,.74-.08,1.21-.14a8.45,8.45,0,0,0,.12-1.76c-.32-2,.56-2.53,2.47-2.44C187.14,30.54,190.14,30.44,193.19,30.44ZM181.84,6.65h7.46V14.4h-7.46Zm-.1,20c0-2.62,0-5.08,0-7.54,0-.31.62-.84,1-.86,2.15-.08,4.3,0,6.67,0,0,2.67,0,5.07,0,7.47a1.47,1.47,0,0,1-1.07.93C186.2,26.73,184.1,26.68,181.74,26.68Z"/><path class="cls-1" d="M267.52,20.24a20,20,0,0,1-2.33-.76c-1.52-.7-2.23-.3-3,1.28-1.37,2.77-3.19,5.31-4.83,7.94h-.87c-2-3.07-4-6.14-6.13-9.41l-4.06,1.19,6.89,11.3c-5.12,3.77-11.24,5.69-17.74,7.16a30.91,30.91,0,0,1,1.82,2.85,1.57,1.57,0,0,0,2.16.87c5.63-1.62,11.09-3.62,15.89-7.06a2,2,0,0,1,2.83,0c4.82,3.7,10.41,5.68,16.28,7a1.82,1.82,0,0,0,1.5-.36c.86-1.07,1.56-2.27,2.35-3.48-6.54-1.25-12.66-3-18-7.2A35,35,0,0,0,267.52,20.24Z"/><path class="cls-1" d="M304.93,35.46c-1.51-1.06-1.9-1.84-1.18-3.64,1.25-3.11,2.08-6.39,3.23-10l-5.37-.58c1.1-3.36,2.17-6.66,3.29-10.09h-9.83v3.56l4.63.26-3.64,10.14h6.09c-.94,2.78-1.43,5.5-2.74,7.76S296,37,294.13,39.11L297,42.92c.77-1.44,1.37-2.71,2.1-3.9,1.31-2.11,1.95-2.25,4-.79,2.8,2,5.83,3.68,9.31,3.73,7.89.12,15.77,0,23.65-.08a1.28,1.28,0,0,0,1-.64c.4-1.16.66-2.37,1-3.5-6.11.3-12,.72-17.88.81C314.86,38.63,309.58,38.69,304.93,35.46Z"/><path class="cls-1" d="M437.37,30.48l10-6.16c-1.52-.83-2.51-1.81-3.51-1.83-6-.12-11.93,0-17.89,0H422.9v3.08h15.73l.17.68-6,2.51c-.05.29-.16,1-.3,1.78H414.6v3.31c4.94,0,9.74,0,14.54,0,4,0,3.53-.85,3.61,3.7,0,1.21-.46,1.79-1.68,1.78h-5c.82,3.51.82,3.51,4.18,3.43.9,0,1.8,0,2.69-.11,2.9-.29,3.92-1.43,3.93-4.35a19.59,19.59,0,0,0,0-2.3c-.19-1.62.32-2.32,2.1-2.19,2.24.16,4.49,0,6.74,0H455V30.48Z"/><path class="cls-1" d="M92.32,15.78l-4.94-1c-.19.82-.33,1.49-.51,2.16-1.49,5.6-2.91,11.22-4.5,16.79-.86,3-1,3-4.17,3H58v4.06H99.73V36.59H86.15C88.24,29.56,90.26,22.74,92.32,15.78Z"/><path class="cls-1" d="M156,1.88H135.82v15H156ZM151.89,14h-9.73c-2.81,0-2.81,0-2.44-3.13h12.17ZM152,7.89c-3.95,0-7.7,0-11.45-.06-.36,0-1-.91-1-1.38s.54-1.64.88-1.66a100.15,100.15,0,0,1,10.54,0C153,4.92,151.71,6.64,152,7.89Z"/><path class="cls-1" d="M98.31,8.53H81V0H76.43c0,2.39-.05,4.67,0,7,0,1.24-.42,1.68-1.68,1.66-4-.06-8.07,0-12.11,0H59.54v4H98.31Z"/><path class="cls-1" d="M238.83,9.84h35c3.85,0,3.88-.05,3.16-4.25H258.91V0h-4.44V5.62h-18V9.84Z"/><path class="cls-1" d="M66.11,16c-.11,0-.21.14-.12.08,1.4,6.19,2.78,12.29,4.17,18.45a9.87,9.87,0,0,1,2-.57c1.8-.15,2-1.09,1.65-2.61C72.8,27,72,22.63,70.74,18.36,69.56,14.37,70.3,14.85,66.11,16Z"/><path class="cls-1" d="M252.3,12.54c-1.35-.5-2.39-1-3.49-1.26a1.68,1.68,0,0,0-1.43.33A39.92,39.92,0,0,1,236,20.69c1.22,1.14,2.37,2.21,3.52,3.3A49.57,49.57,0,0,0,252.3,12.54Z"/><path class="cls-1" d="M262.19,13,274.3,23.38l3.82-2.95-12.51-10Z"/><path class="cls-1" d="M171.71,60.54c-.75,1.87-1.64,3.69-2.69,6-1-2.23-1.91-4-2.59-5.81-.59-1.54-1.47-2.13-3.12-1.53v9.53h1.79V63.07A25.2,25.2,0,0,1,167.41,67a10.21,10.21,0,0,0,1.63,1.8,10.73,10.73,0,0,0,1.46-1.72c.72-1.31,1.29-2.69,1.93-4l.46.09v5.57l.53.33c.43-.34,1.24-.68,1.25-1,.11-2.92.06-5.84.06-8.69C173.08,58.64,172.27,59.17,171.71,60.54Z"/><path class="cls-1" d="M192.91,59c-.31.43-.86.85-.89,1.31-.11,1.62-.05,3.25-.05,4.88l-.48.16c-1.42-1.75-2.78-3.56-4.29-5.23a11.11,11.11,0,0,0-2.57-1.54v10.1h1.91V62c1.76,2.17,3.11,4,4.6,5.61a10,10,0,0,0,2.25,1.47l.47-.59c0-2.74,0-5.48,0-8.21C193.8,59.85,193.23,59.44,192.91,59Z"/><path class="cls-1" d="M270.1,58.79c-3.34,0-5.35,2-5.33,5.19s2.07,5.11,5.41,5.1,5.51-2.07,5.43-5.29S273.49,58.76,270.1,58.79Zm.12,8.6A3.11,3.11,0,0,1,266.89,64c0-2.27,1.2-3.55,3.36-3.52s3.21,1.27,3.2,3.46S272.27,67.37,270.22,67.39Z"/><path class="cls-1" d="M47.89,58.8c-3.35,0-5.39,1.92-5.41,5.1s2,5.16,5.33,5.16,5.44-1.83,5.47-5C53.31,60.71,51.36,58.81,47.89,58.8Zm0,8.6A3.23,3.23,0,0,1,44.55,64,3.2,3.2,0,0,1,48,60.49c2.06.06,3.23,1.32,3.22,3.48A3.14,3.14,0,0,1,47.92,67.4Z"/><path class="cls-1" d="M369.73,65.9c-1.83-2.29-3.24-4.16-4.8-5.91a10,10,0,0,0-2.46-1.37v9.95c1.73.23,1.76.23,1.78-1.2,0-1.61,0-3.21,0-4.82l.54-.09c1.33,1.69,2.7,3.36,4,5.09.76,1,1.58,1.63,2.92,1V59.13h-2Z"/><path class="cls-1" d="M240.92,59.31v3.44h-5.13c0-1,0-1.84,0-2.72-.09-1.56-1.11-.93-2-.89v9.51h2.08v-4h5.06c.06,1.4.12,2.7.18,4.11l2-.14c0-2.79,0-5.46,0-8.13C243.14,58.88,242.34,58.8,240.92,59.31Z"/><path class="cls-1" d="M149.81,63.65h-4.26l-.29.54c.46.31.93.61,1.39.93s.86.65,1.29,1c-.41.4-.75,1-1.24,1.14a4.85,4.85,0,0,1-2.08.11,2.86,2.86,0,0,1-2.73-2.53c-.2-1.5-.14-3,1.39-3.88a3.31,3.31,0,0,1,3.93.33,6.74,6.74,0,0,0,2.07.7c-.63-2.8-2.51-3.21-4.59-3.14s-3.88.93-4.61,3.1a5.28,5.28,0,0,0,1,5.71c1.59,1.66,5.61,2,7.78.66C150.81,67.07,149.51,65.23,149.81,63.65Z"/><path class="cls-1" d="M331.67,63.65c.07,1.33.07,1.33,2.68,1.69-.19.59-.19,1.23-.52,1.56-.91.92-3.76.61-4.84-.42a4.14,4.14,0,0,1-.08-5.11,3.64,3.64,0,0,1,4.43-.25,14.38,14.38,0,0,0,2.45,1c-.82-2.58-2.25-3.42-4.77-3.29s-4.5,1.58-4.9,3.78c-.48,2.61.24,4.53,2.13,5.7s5.57,1.06,7.19-.15a1.67,1.67,0,0,0,.59-1.07c.07-1.12,0-2.25,0-3.42Z"/><path class="cls-1" d="M203.06,63.66c-.32,2.22,1.67,1,2.31,1.73.2,1.64-.86,2.35-3.1,2a3,3,0,0,1-2.77-2.51c-.26-1.54-.1-3,1.32-3.9a3.27,3.27,0,0,1,3.94.24,7.7,7.7,0,0,0,2,.73c-.74-2.68-2.57-3.5-5.33-3a4.64,4.64,0,0,0-4.11,4.56c-.21,2.61.91,4.78,3.21,5.19a19.82,19.82,0,0,0,5.63-.25,1.82,1.82,0,0,0,1.13-1.26,24,24,0,0,0,.06-3.49Z"/><path class="cls-1" d="M135.23,59c-.3.51-.82,1-.86,1.53-.11,1.59,0,3.19,0,4.79A68.53,68.53,0,0,1,129.55,60a9.71,9.71,0,0,0-2.45-1.42V68.69c1.72,0,1.73,0,1.75-1.44s0-3.1,0-4.65l.51-.12c1.37,1.72,2.68,3.51,4.15,5.15a9.45,9.45,0,0,0,2.24,1.44l.5-.44c0-2.73,0-5.46-.05-8.18C136.18,60,135.57,59.5,135.23,59Z"/><path class="cls-1" d="M320.67,60.38c.05,1.62,0,3.23,0,4.85l-.51.16c-1.42-1.76-2.77-3.57-4.28-5.25a11.76,11.76,0,0,0-2.66-1.62c0,3.58-.06,6.44.06,9.3,0,.4.9.77,1.39,1.15l.46-.43V62.67l.46-.15c1.41,1.71,2.75,3.48,4.24,5.11a13.15,13.15,0,0,0,2.57,1.67V59.2C321.14,58.77,320.63,59.13,320.67,60.38Z"/><path class="cls-1" d="M8.22,59.29V66c-1.77-2.23-3.13-4.08-4.64-5.79a9.09,9.09,0,0,0-2.21-1.38l-.47.49C.9,62.13.84,65,1,67.85c0,.39.93.74,1.43,1.11l.45-.44V62.68l.46-.14C4.7,64.27,6,66.06,7.52,67.7a11.53,11.53,0,0,0,2.65,1.56c0-3.42-.05-6.16,0-8.89C10.22,58.87,9.54,58.84,8.22,59.29Z"/><path class="cls-1" d="M64.21,60.4c.06,1.61,0,3.22,0,4.83l-.56.15c-1.38-1.72-2.69-3.5-4.15-5.15a10.48,10.48,0,0,0-2.21-1.5l-.55.44c0,2.92,0,5.84.06,8.76,0,.37.89.7,1.37,1l.49-.37v-6c.36.1.52.09.58.17,1.35,1.62,2.62,3.31,4,4.86a15.19,15.19,0,0,0,2.61,1.74V59.19C64.65,58.77,64.16,59.15,64.21,60.4Z"/><path class="cls-1" d="M423.06,63.2a23.78,23.78,0,0,1-2.82-.53c-.45-.15-.75-.71-1.12-1.08.38-.37.76-1.06,1.15-1.06a16.4,16.4,0,0,1,3.09.48c.75.15,1.48.38,2.58.66-1.44-2.65-3-3.26-6-2.73-1.56.28-2.88.83-2.93,2.7s1.33,2.48,2.83,2.85c1,.24,2.05.23,3,.54a1.71,1.71,0,0,1,.95,1.21c.05.3-.52.92-.91,1-1.46.35-2.89.45-4-1-.37-.46-1.13-.62-2.12-1.12.61,3.31,2.58,4.37,6,3.86,2-.29,3.32-1.43,3.26-2.93C426,64.21,424.69,63.52,423.06,63.2Z"/><path class="cls-1" d="M412.75,64.38c.36-1.14,1.09-2.42.83-3.44-.2-.79-1.59-1.63-2.56-1.79a36,36,0,0,0-5.5-.08V68.8l1.78-.17v-3.2c2-.84,3.18-.15,4,1.67s1,1.85,2.88,1.39l-2.1-3.8C412.31,64.6,412.7,64.54,412.75,64.38Zm-1.86-1c-2.22,1.09-3.69.07-3.53-2.64a20.7,20.7,0,0,1,3.27,0,1.74,1.74,0,0,1,1.17,1.17A1.82,1.82,0,0,1,410.89,63.34Z"/><path class="cls-1" d="M396.06,67.06V64.59h5.34a5.66,5.66,0,0,0-.1-1.26c-1.72-.24-3.46-.41-5.34-.61,0-.68.07-1.28.1-2,1.65,0,3.13,0,4.59,0,.34,0,.64-.55,1-.85-.28-.26-.56-.75-.86-.76-2.22-.06-4.45,0-6.69,0v9.77c2.28,0,4.39.06,6.5-.05.51,0,1-.63,1.48-1l-.33-.71Z"/><path class="cls-1" d="M356.55,64.57c0,2-.84,2.85-2.57,2.83s-2.55-.89-2.59-2.86c0-1.77,0-3.54,0-5.32l-.53-.4c-.5.39-1.42.76-1.43,1.15a35,35,0,0,0,.28,6.48c.33,2,2.11,2.55,4,2.62,2.39.1,4.32-.74,4.57-2.35.39-2.48.38-5,.55-7.59h-2.23C356.55,61,356.57,62.79,356.55,64.57Z"/><path class="cls-1" d="M429,6.14c1.84,2.17,1.92,2.28,4,.73,1.57-1.17,2.78-1.23,4,.28a2.87,2.87,0,0,0,.61.38c.61-.57,1.23-1.15,1.91-1.77l-2.2-2,2.19-2.61L437,.36c-1.24.35-1.58,2.64-3.37,1.26-1.4-1.1-2.56-.76-3.57.72L432.49,4Z"/><path class="cls-1" d="M307.32,59.11c0,2.16,0,4.06,0,6,0,1.61-1,2.27-2.47,2.31-1.67,0-2.59-.86-2.68-2.77s0-3.66,0-5.47c-1.84-.08-1.88-.08-1.9,1.19,0,1.66-.05,3.32,0,5,.13,2.41,1.6,3.7,4.16,3.79,2.9.09,4.67-1,4.89-3.45.19-2.14,0-4.3,0-6.54Z"/><path class="cls-1" d="M227.91,66.54a3.34,3.34,0,0,1-4.53-.06,4,4,0,0,1,.13-5.24,3.29,3.29,0,0,1,4.35.2,9.81,9.81,0,0,0,2.31,1.1c-.67-3-2.26-4-5.2-3.7a4.63,4.63,0,0,0-4.56,4.73c-.14,3,1.29,4.93,4,5.43,3.12.56,5.13-.55,6-3.29l-.37-.55A16.79,16.79,0,0,0,227.91,66.54Z"/><path class="cls-1" d="M73,59.7c-1.38,2.91-2.61,5.9-3.9,8.85l.57.54a23,23,0,0,1,1.86-1.43,4.54,4.54,0,0,1,2.15-1c1.2,0,2.83-.85,3.52.94.49,1.25,1.27,1.44,2.57,1-1.29-3-2.52-5.87-3.84-8.76A1.68,1.68,0,0,0,73,59.7Zm-.25,5.08,1.67-4,1.56,4Z"/><path class="cls-1" d="M117.25,59.54c-1.41,3-2.69,6.05-4,9.08l.62.52a8.59,8.59,0,0,1,1.91-1.64,9.83,9.83,0,0,1,3.44-.85,2.67,2.67,0,0,1,2.12,1c.57,1.24,1.3,1.38,2.62,1-1.33-3-2.59-6-4-8.89C119.52,58.73,117.67,58.65,117.25,59.54Zm-.33,5.23,1.63-4c.67,1.61,1.11,2.69,1.64,4Z"/><path class="cls-1" d="M256,59.68c-1.38,2.91-2.63,5.89-3.94,8.88,1.27.43,2.08.31,2.45-.92s1.57-1.14,2.53-1,2.57-.71,3.14,1c.44,1.27,1.25,1.45,2.55,1-1.3-3-2.55-6-3.9-8.9A1.7,1.7,0,0,0,256,59.68Zm-.26,5.09c.53-1.29,1-2.35,1.59-3.9.66,1.51,1.11,2.56,1.7,3.9Z"/><path class="cls-1" d="M17.22,59.58c-1.4,3-2.66,6-4,9,1.37.41,2,.12,2.55-1a3,3,0,0,1,2.3-1c1.14,0,2.55-.68,3.37,1,.33.65,1.22,1,1.86,1.5l.57-.61c-1.27-2.9-2.5-5.82-3.83-8.7C19.56,58.75,17.69,58.6,17.22,59.58Zm-.33,5.18c.54-1.3,1-2.36,1.62-3.88.63,1.48,1.09,2.56,1.66,3.88Z"/><path class="cls-1" d="M388.22,60.42c-.67,1.93-1.47,3.82-2.22,5.72a26.62,26.62,0,0,1-2.63-5.67c-.43-1.28-1.12-1.76-2.75-1.23,1.25,3.06,2.41,6,3.68,8.9.41.94,2.44,1,2.85.07,1.31-2.94,2.48-5.95,3.71-8.94C389.34,58.65,388.66,59.15,388.22,60.42Z"/><path class="cls-1" d="M26.34,59.05a5.24,5.24,0,0,0-1.68.73c.57.31,1.16.92,1.68.87,1.8-.18,2.2.61,2.09,2.22-.12,1.89,0,3.81,0,5.91l2.06-.11v-8a11.86,11.86,0,0,0,2.35,0,4.4,4.4,0,0,0,1.3-.88c-.41-.26-.82-.73-1.25-.74C30.7,59,28.51,59,26.34,59.05Z"/><path class="cls-1" d="M289.14,59c-1.32,0-1.3.63-.94,1.72h3.42v8h2.1v-8a15.24,15.24,0,0,0,2.48,0c.44-.08.81-.51,1.21-.78-.39-.3-.77-.83-1.17-.84C293.87,59,291.5,59.05,289.14,59Z"/><path class="cls-1" d="M442.81,59.06c-2.75-.07-5.5,0-8.34,0v1.66h3.58v8.11l1.95-.14c0-2.27,0-4.38,0-6.48,0-1.05.34-1.56,1.44-1.47a3.34,3.34,0,0,0,1.34,0,4,4,0,0,0,1-.78C443.46,59.6,443.14,59.07,442.81,59.06Z"/><path class="cls-1" d="M84.8,67V59.14H82.93v9.65c2.21,0,4.26.06,6.31,0,.52,0,1-.6,1.51-.91L90.42,67Z"/><path class="cls-1" d="M107.47,62.79c-3.13-3.86-3.13-3.86-4.63-3.42a32.48,32.48,0,0,1,2.81,4.35,31.81,31.81,0,0,1,1.37,5l1.69.07c-1.2-4.21,2.15-6.52,3.57-9.72C109.13,58.56,109.34,62,107.47,62.79Z"/><path class="cls-1" d="M303.69,7.47C302.82,5,302,2.6,301.1.05l-3.7,1.13c.84,2.65,1.61,5.11,2.44,7.72Z"/><path class="cls-1" d="M449.75,62.9a18.12,18.12,0,0,0-1.83-2.66,12.39,12.39,0,0,0-2.31-1.54l-.46.53c1.51,3,4.79,5.37,3.6,9.45H451c-1.09-4.05,2-6.43,3.72-9.56C451.43,58.46,451.68,62,449.75,62.9Z"/><path class="cls-1" d="M178.71,68.67h1.91V59.12L178.71,59Z"/><path class="cls-1" d="M429.48,59.23v9.56l1.94-.11c0-2.92,0-5.71,0-8.5C431.39,58.57,430.41,59,429.48,59.23Z"/><path class="cls-1" d="M247,60.37c0,2.6,0,5.2,0,7.81a1.75,1.75,0,0,0,.23.55h1.65V59.24C247.66,58.82,246.94,58.92,247,60.37Z"/><path class="cls-1" d="M375.68,59.93c-.12,2.9-.06,5.81-.06,8.75h1.9v-9.4l-.48-.49C376.57,59.17,375.7,59.54,375.68,59.93Z"/><path class="cls-1" d="M37.08,60.38c0,2.55,0,5.1,0,7.66a2.93,2.93,0,0,0,.28.75l1.55-.1V59.27C37.15,59,37.09,59,37.08,60.38Z"/><path class="cls-1" d="M30.79,27c-.44,1.89-.76,3.27-1.08,4.68-3-1.06-3.81-3-2.48-5.27A29.44,29.44,0,0,0,31.05,17L28,16.42l-2.72,6.83-.68-.09c-.4-2.77-.79-5.54-1.22-8.55h6.84c2.68,0,2.88-.3,2.17-3.1l-2.17-.3,1.59-2.13c-.35-.29-.58-.51-.84-.69-.58-.4-1.16-.8-1.75-1.17-2.14-1.31-2.28-1.28-3.64.87l3.86,2.73-.28.45H23.24c-.17-1.49-.33-2.86-.49-4.28H19.48v4.42H6.34c-.57,3.14-.54,3.17,2.24,3.19H19.75c.67,3.83,1.2,7.37,1.91,10.86.54,2.64.42,3.12-2.16,4.75l-.44-2.39-13.36,2c.18,1.14.32,2,.49,3.07l12.22-2.07.18.44-2.78,2,2.41,2.58,5.45-4.44c.49.61,1,1.27,1.52,1.88,1.41,1.58,3.87,2.5,5.12,1.86,2.16-1.12,2.62-3.33,2.76-5.38C33.13,29.05,31.75,28.15,30.79,27Z"/><path class="cls-1" d="M7.75,17.22v8.63h10V17.22Zm7,6.34H10.64V19.64h4.15Z"/></svg>